<?xml version="1.0" encoding="UTF-8"?>
<svg version="1.1" xmlns="http://www.w3.org/2000/svg" width="512" height="512">
<path d="M0 0 C3.34623613 0.23419869 6.69321904 0.45652971 10.0402689 0.67874718 C13.32229407 0.89758012 16.6039224 1.12194609 19.88545036 1.34810257 C21.42284639 1.45376847 22.96032599 1.55822703 24.49789619 1.66132736 C37.45390566 2.53737333 50.38870139 3.59666002 62.85778809 7.42376709 C63.70478271 7.68319092 64.55177734 7.94261475 65.42443848 8.2098999 C92.64824184 16.94656688 113.18842408 37.05148369 126.20935059 62.02142334 C134.92028809 79.09384794 134.92028809 79.09384794 134.92028809 81.79876709 C135.58028809 81.79876709 136.24028809 81.79876709 136.92028809 81.79876709 C137.50650346 77.34353027 136.51502597 74.74740131 134.42028809 70.92376709 C131.87121966 66.03072771 130.85880069 63.28311863 131.92028809 57.79876709 C133.92201081 54.75436428 136.24492801 52.26196128 138.92028809 49.79876709 C139.59930176 49.11137451 140.27831543 48.42398193 140.97790527 47.71575928 C145.03962 45.06951101 148.26841038 45.22154916 153.01794434 45.26751709 C153.8892247 45.26369019 154.76050507 45.25986328 155.65818787 45.25592041 C157.49467122 45.25320556 159.33119353 45.26053685 161.16760254 45.27728271 C163.97731636 45.29872533 166.7844809 45.27745434 169.59411621 45.25189209 C171.38123122 45.25453494 173.16834465 45.25965903 174.95544434 45.26751709 C175.79406509 45.25942017 176.63268585 45.25132324 177.49671936 45.24298096 C183.2994217 45.3362563 183.2994217 45.3362563 186.34680176 47.60638428 C188.63379243 50.79291279 190.41305007 54.04730763 192.17028809 57.54876709 C192.71556152 58.5658374 192.71556152 58.5658374 193.27185059 59.60345459 C195.7881858 64.57936558 196.56499238 68.22294615 195.92028809 73.79876709 C194.56481934 76.18939209 194.56481934 76.18939209 192.73278809 78.04876709 C191.84526855 78.98462646 191.84526855 78.98462646 190.93981934 79.93939209 C190.27337402 80.55298584 189.60692871 81.16657959 188.92028809 81.79876709 C188.20356934 82.48906006 187.48685059 83.17935303 186.74841309 83.89056396 C183.14005914 86.3252061 180.97482556 86.26057018 176.65075684 86.18939209 C175.96975418 86.1837323 175.28875153 86.17807251 174.58711243 86.17224121 C172.42660164 86.1499719 170.26779162 86.09980027 168.10778809 86.04876709 C166.63710903 86.02868956 165.1664038 86.01044098 163.69567871 85.99407959 C160.10333558 85.95014035 156.51197802 85.88118165 152.92028809 85.79876709 C152.61091309 86.74751709 152.30153809 87.69626709 151.98278809 88.67376709 C150.92028809 91.79876709 150.92028809 91.79876709 149.92028809 93.79876709 C150.76978027 94.07720459 151.61927246 94.35564209 152.49450684 94.64251709 C153.62501465 95.02407959 154.75552246 95.40564209 155.92028809 95.79876709 C156.9992334 96.13907959 158.07817871 96.47939209 159.18981934 96.83001709 C171.72138706 102.02502201 180.95664716 112.53466483 186.31259155 124.85614014 C192.82682215 142.56206629 189.84651441 164.88171595 189.37902832 183.38366699 C189.26680192 188.63057828 189.23788209 193.87651638 189.21175194 199.12445831 C189.1763051 205.42262144 189.09315062 211.71988931 189.00622559 218.01751709 C188.99379192 219.20271439 188.98135826 220.38791168 188.96854782 221.60902405 C188.92451149 224.97485882 188.84653771 228.33814862 188.75769043 231.70306396 C188.74895905 232.68289749 188.74022766 233.66273102 188.73123169 234.67225647 C188.47379555 242.26221118 186.4171186 249.30193657 180.92028809 254.79876709 C180.61541058 256.99395824 180.61541058 256.99395824 180.64685059 259.52532959 C180.62622559 260.47536865 180.60560059 261.42540771 180.58435059 262.40423584 C180.55861319 264.39373621 180.54020422 266.38334692 180.52966309 268.37298584 C180.34673461 275.9238668 178.98766433 281.29842124 173.95544434 287.04095459 C173.30446777 287.57978271 172.65349121 288.11861084 171.98278809 288.67376709 C171.33438965 289.22806396 170.68599121 289.78236084 170.01794434 290.35345459 C164.43586836 294.1995777 159.21840032 294.11940323 152.65075684 294.13470459 C151.6557869 294.14136139 150.66081696 294.14801819 149.63569641 294.15487671 C147.53355757 294.16498607 145.43138675 294.16969426 143.32922363 294.16937256 C140.12921637 294.17373786 136.9305977 294.2100547 133.73083496 294.24798584 C131.68331361 294.25385608 129.63578574 294.25782408 127.58825684 294.25970459 C126.63903854 294.27407562 125.68982025 294.28844666 124.71183777 294.30325317 C117.1308231 294.25166355 112.02731965 292.34088382 106.17028809 287.54876709 C103.43531564 284.20602299 101.66604822 280.72916561 99.92028809 276.79876709 C99.15587402 276.87095459 98.39145996 276.94314209 97.60388184 277.01751709 C95.31037848 277.21623218 93.01434388 277.38669638 90.71716309 277.53704834 C88.3266836 277.70182419 85.93873122 277.92089103 83.56091309 278.21673584 C70.52726522 279.23406808 59.47842001 273.19801868 47.92028809 267.79876709 C46.24659101 269.98529614 44.74478495 272.10063248 43.35778809 274.48626709 C41.92028809 276.79876709 41.92028809 276.79876709 39.92028809 277.79876709 C37.51132082 277.90278261 35.13085775 277.9465661 32.72134399 277.94593811 C31.97108377 277.9496148 31.22082355 277.95329149 30.44782817 277.95707959 C27.92057491 277.9681391 25.39336273 277.97196407 22.86608887 277.97576904 C21.05949777 277.98203189 19.25290796 277.98867853 17.44631958 277.99568176 C12.52897538 278.01310595 7.61164091 278.02364698 2.69427347 278.03188729 C-0.37555327 278.03703351 -3.44537697 278.04310935 -6.51520157 278.04939842 C-16.11323355 278.06845283 -25.71125781 278.0826845 -35.30930507 278.09101039 C-46.40153442 278.10079047 -57.49356462 278.12712906 -68.58572376 278.16751128 C-77.15136255 278.19762932 -85.71694412 278.21247508 -94.28263485 278.2157914 C-99.40247048 278.21814646 -104.52209341 278.22716613 -109.64187241 278.25225258 C-114.45668653 278.27546354 -119.27114687 278.27979478 -124.08600235 278.2694912 C-125.85492375 278.26899405 -127.62386215 278.27536687 -129.39273071 278.28904724 C-131.80451572 278.30665904 -134.21501617 278.29971403 -136.62680054 278.28651428 C-137.68117886 278.30296815 -137.68117886 278.30296815 -138.75685775 278.31975442 C-142.06527405 278.27592204 -143.78905812 278.02416248 -146.43614388 275.97140789 C-148.38488143 273.39536198 -149.7452672 270.73454546 -151.07971191 267.79876709 C-152.99727093 268.52558381 -154.9136959 269.25539244 -156.82971191 269.98626709 C-158.62021973 270.6630249 -158.62021973 270.6630249 -160.44689941 271.35345459 C-162.69005235 272.24589178 -164.91154268 273.19847798 -167.08752441 274.24407959 C-175.23330833 278.12830898 -182.14920276 278.37076251 -191.07971191 277.79876709 C-192.34814941 277.71884521 -193.61658691 277.63892334 -194.92346191 277.55657959 C-197.97978471 277.33732165 -201.029218 277.08684071 -204.07971191 276.79876709 C-204.57471191 277.97439209 -205.06971191 279.15001709 -205.57971191 280.36126709 C-208.34410069 285.89988232 -212.62466517 289.94148865 -218.06896973 292.86810303 C-222.48559196 294.233345 -226.75069213 294.12399084 -231.34924316 294.13470459 C-232.3442131 294.14136139 -233.33918304 294.14801819 -234.36430359 294.15487671 C-236.46644243 294.16498607 -238.56861325 294.16969426 -240.67077637 294.16937256 C-243.87078363 294.17373786 -247.0694023 294.2100547 -250.26916504 294.24798584 C-252.31668639 294.25385608 -254.36421426 294.25782408 -256.41174316 294.25970459 C-257.36096146 294.27407562 -258.31017975 294.28844666 -259.28816223 294.30325317 C-266.51656606 294.25406311 -271.83839047 292.63915853 -277.32189941 287.83392334 C-277.86072754 287.18294678 -278.39955566 286.53197021 -278.95471191 285.86126709 C-279.50900879 285.21286865 -280.06330566 284.56447021 -280.63439941 283.89642334 C-285.06888822 277.46042202 -284.38662555 270.71568517 -284.29455566 263.16595459 C-284.41047854 256.65643915 -285.70844243 252.84082783 -289.69592285 247.66497803 C-291.93275755 244.6483294 -292.21840423 241.96712213 -292.3210907 238.32977295 C-292.34847824 237.41386887 -292.37586578 236.49796478 -292.40408325 235.55430603 C-292.42876678 234.55087662 -292.45345032 233.5474472 -292.47888184 232.51361084 C-292.50794113 231.45438919 -292.53700043 230.39516754 -292.56694031 229.30384827 C-292.82262198 219.45436985 -292.97438046 209.60316776 -293.09446239 199.75119019 C-293.17663036 193.14832116 -293.29239698 186.55007956 -293.49255371 179.949646 C-295.08887284 125.93797185 -295.08887284 125.93797185 -278.95202637 107.27020264 C-272.76878555 101.15188652 -263.27179824 93.79876709 -254.07971191 93.79876709 C-254.57471191 92.85001709 -255.06971191 91.90126709 -255.57971191 90.92376709 C-257.07971191 87.79876709 -257.07971191 87.79876709 -257.07971191 85.79876709 C-257.97689941 85.8354248 -258.87408691 85.87208252 -259.79846191 85.90985107 C-263.16092955 86.02990819 -266.52108878 86.11725034 -269.8848877 86.18328857 C-271.33414875 86.21827074 -272.78316672 86.265877 -274.23156738 86.32684326 C-287.80793841 86.88355868 -287.80793841 86.88355868 -292.92346191 82.42376709 C-294.00931339 81.24568587 -295.06658804 80.0399475 -296.07971191 78.79876709 C-296.90471191 77.99439209 -297.72971191 77.19001709 -298.57971191 76.36126709 C-300.64961348 72.82518525 -300.68860969 69.75451734 -300.07971191 65.79876709 C-298.76234452 62.30661392 -297.02758767 59.11281544 -295.20471191 55.86126709 C-294.51441895 54.56865967 -294.51441895 54.56865967 -293.81018066 53.24993896 C-290.38561695 46.95171961 -290.38561695 46.95171961 -288.07971191 45.79876709 C-282.48239902 45.46546432 -276.88464032 45.39947717 -271.27844238 45.33880615 C-269.40643644 45.31226206 -267.53457496 45.27140601 -265.66320801 45.21575928 C-248.10234776 44.69990318 -248.10234776 44.69990318 -242.96252441 49.17767334 C-241.35754395 51.04705811 -241.35754395 51.04705811 -240.07971191 52.79876709 C-239.25471191 53.60314209 -238.42971191 54.40751709 -237.57971191 55.23626709 C-235.4816265 58.82049633 -235.24209634 61.81836251 -236.07971191 65.79876709 C-237.25491862 68.42976619 -238.58226407 70.92842568 -239.96643066 73.45501709 C-241.33995057 76.34663794 -241.49549693 78.63880098 -241.07971191 81.79876709 C-240.41971191 81.79876709 -239.75971191 81.79876709 -239.07971191 81.79876709 C-238.85283691 81.02532959 -238.62596191 80.25189209 -238.39221191 79.45501709 C-227.79755549 49.94133134 -208.48234724 26.4642328 -180.30529785 12.54901123 C-162.86103947 4.3691583 -144.25735888 2.78553111 -125.29846191 1.50970459 C-123.71263826 1.40058126 -122.12682303 1.29133551 -120.54101562 1.18197632 C-117.23008693 0.95500813 -113.9189137 0.73209244 -110.60754395 0.51165771 C-107.28377316 0.28985815 -103.96061839 0.06101289 -100.63781738 -0.17486572 C-66.87066823 -2.56876299 -33.75938115 -2.39324558 0 0 Z " fill="#010100" transform="translate(308.0797119140625,106.20123291015625)"/>
<path d="M0 0 C1.77709757 1.25280887 3.29371652 2.50862285 4.82373047 4.05175781 C5.36143066 4.59074707 5.89913086 5.12973633 6.453125 5.68505859 C7.01241699 6.25724121 7.57170898 6.82942383 8.14794922 7.41894531 C8.73044434 8.00788574 9.31293945 8.59682617 9.91308594 9.20361328 C13.42744976 12.78085642 16.78683576 16.44558019 20.03076172 20.27050781 C22.81467901 23.39186963 25.81527266 26.29416354 28.79125977 29.23022461 C31.39682104 31.8143299 33.89605503 34.43612477 36.27294922 37.23144531 C39.7902351 41.36043309 43.62609968 45.1371161 47.50317383 48.92456055 C50.20142636 51.57875306 52.61655853 54.23227122 54.83544922 57.29394531 C57.28710533 60.23410197 59.65193672 61.1290233 63.27294922 62.27050781 C64.34544922 62.60985352 65.41794922 62.94919922 66.52294922 63.29882812 C72.70717599 65.15664861 78.92221819 66.88416092 85.15698242 68.5637207 C90.04243655 69.89469492 94.84933866 71.22831789 99.56591797 73.07910156 C110.97596703 77.4231051 122.06433591 77.96026847 134.14794922 78.10644531 C135.3654335 78.13628006 135.3654335 78.13628006 136.60751343 78.16671753 C146.42257379 78.36535374 153.69385045 77.4570081 162.39422607 72.82170105 C169.15035353 69.33960872 175.4332316 69.25624778 182.89794922 69.41894531 C184.14382813 69.391875 185.38970703 69.36480469 186.67333984 69.33691406 C193.7074452 69.38807119 198.58664194 70.35741395 204.77685547 73.75878906 C212.37362557 77.90238536 219.23318275 78.75248334 227.71044922 78.73144531 C228.83918457 78.74239731 228.83918457 78.74239731 229.99072266 78.75357056 C251.80376256 78.75891138 272.76509952 71.47539203 293.39794922 65.08691406 C294.47972443 64.75230164 295.56149963 64.41768921 296.67605591 64.07293701 C297.67869476 63.75294739 298.68133362 63.43295776 299.71435547 63.10327148 C300.58648682 62.82569504 301.45861816 62.54811859 302.35717773 62.26213074 C307.84079977 60.1198461 311.63951894 56.77298138 315.72729492 52.62915039 C316.29373215 52.06300522 316.86016937 51.49686005 317.44377136 50.91355896 C319.30437447 49.05156878 321.15780349 47.18260767 323.01123047 45.31347656 C324.30402113 44.01695356 325.59725571 42.72087305 326.89091492 41.42521667 C330.28684463 38.02166792 333.67672396 34.61215486 337.06536865 31.20135498 C340.52740496 27.71882305 343.99514302 24.24197891 347.46240234 20.76464844 C354.25900316 13.9466282 361.04922424 7.12229198 367.83544922 0.29394531 C383.41351323 5.46707156 396.70676384 11.23029555 404.50341797 26.54003906 C408.92990064 36.81181697 411.71215483 46.3069664 407.72265625 57.24707031 C400.84081751 73.12415782 386.72599053 88.30579668 370.83544922 95.29394531 C351.73085584 102.24402695 329.98818005 103.6466146 309.858078 105.19569397 C301.62884529 105.8347213 293.72389133 106.92741611 285.64251709 108.59043884 C275.64998157 110.43695528 265.79432573 110.46087703 255.67456055 110.48681641 C253.9386784 110.49473084 252.20279785 110.50300059 250.46691895 110.51159668 C244.78378847 110.53769296 239.10065117 110.55312621 233.41748047 110.56738281 C231.44657577 110.57275026 229.47567111 110.57812778 227.50476646 110.58351517 C219.28725857 110.60513839 211.06975251 110.62386276 202.8522234 110.63513756 C191.16085812 110.65129388 179.46982947 110.6842739 167.77859098 110.74153841 C159.51473968 110.78060074 151.25097695 110.79981337 142.98703593 110.80505812 C138.07544522 110.80866653 133.16421437 110.82019205 128.2527256 110.85316086 C106.56940204 110.99169674 86.04763606 110.24943552 64.74998665 105.87096691 C60.57501059 105.04440303 56.37931646 104.42845445 52.16357422 103.85253906 C51.44068805 103.75128408 50.71780188 103.65002911 49.97301006 103.5457058 C48.68100313 103.36492298 47.38876085 103.18581587 46.09631348 103.00820923 C42.48718275 102.51146901 38.88024338 101.99913372 35.27294922 101.48925781 C34.20382294 101.3385659 34.20382294 101.3385659 33.11309814 101.18482971 C26.09843727 100.19445533 19.09003631 99.1659923 12.08544922 98.10644531 C11.03905273 97.95167725 9.99265625 97.79690918 8.91455078 97.63745117 C7.94485352 97.48928955 6.97515625 97.34112793 5.97607422 97.18847656 C5.14624023 97.0631958 4.31640625 96.93791504 3.46142578 96.80883789 C2.59485352 96.63892334 1.72828125 96.46900879 0.83544922 96.29394531 C-0.79807495 95.98481201 -0.79807495 95.98481201 -2.46459961 95.66943359 C-7.42752815 93.82442275 -10.63637232 90.94078747 -14.50439453 87.39160156 C-15.27352676 86.69071411 -16.042659 85.98982666 -16.83509827 85.2677002 C-42.95203324 61.04925099 -42.95203324 61.04925099 -44.27661133 48.19262695 C-44.08678771 42.54134202 -43.06771049 37.61005824 -41.16455078 32.29394531 C-40.83100586 31.34406738 -40.49746094 30.39418945 -40.15380859 29.41552734 C-33.70366291 13.24461929 -20.05850483 6.56656004 -4.79907227 -0.05712891 C-2.16455078 -0.70605469 -2.16455078 -0.70605469 0 0 Z " fill="#F2B752" transform="translate(73.16455078125,209.7060546875)"/>
<path d="M0 0 C0.77778809 0.00008057 1.55557617 0.00016113 2.35693359 0.00024414 C10.98014922 0.07716484 19.58234564 0.60080589 28.1875 1.125 C28.90541718 1.16847565 29.62333435 1.21195129 30.36300659 1.25674438 C37.27251653 1.68098397 44.16048406 2.14924616 51.03515625 2.9753418 C54.84640422 3.37418266 58.67234786 3.47738014 62.5 3.625 C96.72224366 5.17154044 126.83330561 8.23201062 152.0625 34.1875 C161.49377527 44.57816362 169.62813351 58.88440052 174.0625 72.1875 C61.2025 72.1875 -51.6575 72.1875 -167.9375 72.1875 C-154.14802422 43.07638446 -139.69235067 21.18414719 -108.9375 10.1875 C-108.2465625 9.92388672 -107.555625 9.66027344 -106.84375 9.38867188 C-98.64193297 6.55493713 -90.14636297 6.25477324 -81.5625 5.6875 C-79.866386 5.56688544 -78.17034208 5.44528192 -76.47436523 5.32275391 C-71.92549323 4.9974557 -67.37574182 4.68696053 -62.82550049 4.38146973 C-59.86516659 4.1826418 -56.90498027 3.98173091 -53.94482422 3.78027344 C-52.94281982 3.7121344 -51.94081543 3.64399536 -50.90844727 3.5737915 C-48.89167852 3.43660876 -46.87491416 3.29936156 -44.8581543 3.16204834 C-40.00880291 2.83243749 -35.15927001 2.50653181 -30.30908203 2.18945312 C-29.40827408 2.12976349 -28.50746613 2.07007385 -27.57936096 2.00857544 C-25.90511806 1.89769297 -24.2307582 1.78855489 -22.55625916 1.68161011 C-18.88978922 1.43700454 -15.25402741 1.12624729 -11.60888672 0.6574707 C-7.72205611 0.15992123 -3.91127919 -0.0039902 0 0 Z " fill="#C6E1FB" transform="translate(252.9375,119.8125)"/>
<path d="M0 0 C107.58 0 215.16 0 326 0 C319.04739557 8.11137183 311.84952228 15.90848243 304.42596817 23.58878231 C302.11500675 25.9816934 299.83185476 28.3908852 297.57617188 30.83666992 C284.68087161 44.79115921 273.74699483 52.18515269 255.10079956 56.26593018 C250.68960977 57.31021609 246.41350212 58.71236798 242.10206604 60.10502625 C231.4463309 63.52369537 220.93534013 64.72637795 209.8125 64.875 C208.56057861 64.90722656 207.30865723 64.93945312 206.01879883 64.97265625 C199.03608752 64.89127375 193.88511021 63.76382214 187.734375 60.5 C179.84045927 56.35412796 172.64285044 55.92310265 163.8293457 56.08740234 C161.43322487 56.1250672 159.04624078 56.08751311 156.65039062 56.04296875 C146.91555311 56.01532596 140.85284462 57.58470036 132.31518555 62.37988281 C126.69567175 65.12611549 121.36588199 65.33825689 115.1875 65.3125 C113.86814453 65.31193604 112.54878906 65.31137207 111.18945312 65.31079102 C97.3697092 64.94626782 84.22018914 61.20625921 71 57.4375 C69.91762054 57.13317047 68.83524109 56.82884094 67.72006226 56.51528931 C64.59498672 55.62272837 61.48386336 54.69343855 58.375 53.74609375 C57.44597366 53.47588409 56.51694733 53.20567444 55.55976868 52.92727661 C49.06170874 50.85811174 44.77862364 47.82833481 40 43 C39.28779297 42.29496338 38.57558594 41.58992676 37.84179688 40.86352539 C37.30619141 40.28078857 36.77058594 39.69805176 36.21875 39.09765625 C35.60837891 38.43894531 34.99800781 37.78023437 34.36914062 37.1015625 C33.75232422 36.42867187 33.13550781 35.75578125 32.5 35.0625 C31.18853837 33.64617322 29.87604967 32.23079672 28.5625 30.81640625 C27.94503906 30.15141113 27.32757813 29.48641602 26.69140625 28.80126953 C24.67374217 26.65255048 22.60253383 24.56557522 20.5 22.5 C17.47036827 19.52237911 14.70423547 16.38452538 11.94140625 13.16015625 C8.76169971 9.62217292 5.3443223 6.32567974 1.94140625 3.00390625 C0 1 0 1 0 0 Z " fill="#F4B852" transform="translate(94,208)"/>
<path d="M0 0 C9.23330623 0.85738346 18.31455709 2.19083349 27.43546963 3.85667706 C76.65740906 12.84251765 124.6659999 14.53573576 174.62125027 14.01846182 C182.7682468 13.9372934 190.9146511 13.91223733 199.06200951 13.9022302 C209.03566133 13.88996706 219.00899297 13.84734773 228.98249078 13.79176259 C231.77289296 13.77760418 234.56328092 13.76797438 237.35370445 13.75913811 C259.25509291 13.67550695 280.35755545 12.56520285 302 9 C303.62980542 8.74428587 305.25981812 8.48988596 306.89012146 8.23736572 C310.35027823 7.69215163 313.79998828 7.10571346 317.25 6.5 C319.72375248 6.07821796 322.19771585 5.65767119 324.671875 5.23828125 C325.88037109 5.03283691 327.08886719 4.82739258 328.33398438 4.61572266 C334.38313847 3.59974193 340.43968577 2.63437049 346.5 1.6875 C348.11116699 1.43033203 348.11116699 1.43033203 349.75488281 1.16796875 C350.75358398 1.01328125 351.75228516 0.85859375 352.78125 0.69921875 C354.0815918 0.49558716 354.0815918 0.49558716 355.40820312 0.2878418 C358.39556711 -0.0439312 360.99963889 -0.33259429 364 0 C366.11816406 1.88012695 366.11816406 1.88012695 368.015625 4.48828125 C368.70914062 5.42220703 369.40265625 6.35613281 370.1171875 7.31835938 C370.82101562 8.30642578 371.52484375 9.29449219 372.25 10.3125 C373.32894531 11.77719727 373.32894531 11.77719727 374.4296875 13.27148438 C382.31140101 24.00921206 382.31140101 24.00921206 382.125 31.6875 C382.11146484 32.7403418 382.11146484 32.7403418 382.09765625 33.81445312 C382.07413704 35.54311525 382.03826713 37.27160145 382 39 C374.8275553 39.76853874 367.65476746 40.53379096 360.48155117 41.2950964 C357.14907117 41.64887714 353.81674974 42.00401854 350.48461914 42.36108398 C349.19612061 42.49909424 347.90762207 42.63710449 346.58007812 42.77929688 C345.31010483 42.91549942 344.04013153 43.05170197 342.73167419 43.19203186 C338.98237817 43.58473406 335.23103124 43.94926017 331.47875977 44.31225586 C327.85505234 44.6695554 324.30676281 45.07720095 320.73803711 45.79907227 C307.56158892 48.0093575 295.33106522 40.42839656 283.6875 35.0625 C280.17384917 33.48019207 276.65635009 31.90671429 273.13813782 30.33457947 C270.96100229 29.35771996 268.78735 28.37305279 266.61759949 27.37989807 C265.64510757 26.93621384 264.67261566 26.4925296 263.6706543 26.03540039 C262.81432907 25.64155655 261.95800385 25.24771271 261.07572937 24.8419342 C259.06443862 23.87471099 259.06443862 23.87471099 257 24 C255.02 28.62 253.04 33.24 251 38 C252.65 38.33 254.3 38.66 256 39 C257.79608112 39.79971495 259.56816512 40.65544586 261.3125 41.5625 C262.19550781 42.01753906 263.07851563 42.47257812 263.98828125 42.94140625 C264.98408203 43.46541016 264.98408203 43.46541016 266 44 C265.67 44.66 265.34 45.32 265 46 C210.22 46 155.44 46 99 46 C99 45.01 99 44.02 99 43 C100.76755526 42.15973604 102.53917263 41.32801278 104.3125 40.5 C105.29863281 40.0359375 106.28476563 39.571875 107.30078125 39.09375 C110 38 110 38 113 38 C111.02 33.38 109.04 28.76 107 24 C100.50085392 26.07589433 94.26212383 28.48448687 88.00390625 31.1953125 C87.08915024 31.58822479 86.17439423 31.98113708 85.23191833 32.38595581 C82.34063144 33.62889563 79.45157724 34.87693407 76.5625 36.125 C74.59714357 36.97037382 72.63165001 37.81542892 70.66601562 38.66015625 C67.08977452 40.19882843 63.51370554 41.7378859 59.93969727 43.28173828 C59.22515884 43.59023712 58.51062042 43.89873596 57.77442932 44.21658325 C56.50145885 44.77860417 55.24461121 45.37769439 54 46 C48.69466095 46.16095088 43.60737857 45.83902919 38.328125 45.23046875 C37.61531372 45.14970596 36.90250244 45.06894318 36.16809082 44.98573303 C33.86158551 44.72364009 31.55582025 44.45554638 29.25 44.1875 C26.84283253 43.91270132 24.43548807 43.6394893 22.02813721 43.36630249 C20.40336263 43.1817866 18.77864743 42.99674714 17.1539917 42.81118774 C9.35641614 41.92149786 1.55415943 41.07987027 -6.25 40.25 C-7.44463867 40.12262451 -8.63927734 39.99524902 -9.87011719 39.86401367 C-12.5800082 39.57534433 -15.28996225 39.28728783 -18 39 C-19.4165187 32.59615506 -19.74623941 27.09167531 -16.46191406 21.27685547 C-12.55169458 15.58739819 -8.19042116 10.26576531 -3.69580078 5.03027344 C-1.8593341 2.9056339 -1.8593341 2.9056339 0 0 Z " fill="#233141" transform="translate(74,322)"/>
<path d="M0 0 C4.27144535 0.92239564 7.53781688 3.42551266 11.06152344 5.90966797 C12.81885075 7.10048845 14.57669052 8.29055294 16.33496094 9.47998047 C17.27178711 10.12225586 18.20861328 10.76453125 19.17382812 11.42626953 C24.07004947 14.75125615 29.03897236 17.96435231 34.00152588 21.18899536 C37.70357974 23.59626235 41.39865965 26.01407247 45.08886719 28.43945312 C47.24315034 29.85311655 49.40146324 31.25861647 51.56542969 32.65722656 C52.64695312 33.36314941 53.72847656 34.06907227 54.84277344 34.79638672 C55.82052734 35.43020264 56.79828125 36.06401855 57.80566406 36.71704102 C60.85335818 38.96374662 62.05118486 40.58280016 62.62402344 44.34716797 C61.96034747 49.0877106 58.82568742 51.20203254 55.20092773 54.01074219 C52.92221186 55.69081022 50.62243646 57.33669422 48.31152344 58.97216797 C47.14556641 59.80554688 47.14556641 59.80554688 45.95605469 60.65576172 C44.42229457 61.75130466 42.88362759 62.84001449 41.33984375 63.92138672 C39.97548766 64.9039706 38.63676547 65.92405566 37.33789062 66.99169922 C33.92489021 69.74068424 31.08670226 71.40323774 26.49414062 71.0859375 C21.10047236 69.65135413 16.48220714 66.36646714 11.81152344 63.40966797 C10.73902344 62.75289063 9.66652344 62.09611328 8.56152344 61.41943359 C-10.10090301 49.89731508 -10.10090301 49.89731508 -11.81347656 46.47216797 C-12.31153621 37.33453814 -11.60109466 28.0937551 -11.06347656 18.97216797 C-11.03253906 18.29895508 -11.00160156 17.62574219 -10.96972656 16.93212891 C-10.87842938 14.95497431 -10.76038076 12.97911202 -10.64160156 11.00341797 C-10.57875977 9.84390625 -10.51591797 8.68439453 -10.45117188 7.48974609 C-9.21919169 1.66000831 -5.88380324 -0.32687796 0 0 Z " fill="#020201" transform="translate(57.8134765625,227.52783203125)"/>
<path d="M0 0 C2.89802064 2.18664974 3.88051665 3.43460405 4.63769531 7.01757812 C4.70053711 8.17708984 4.76337891 9.33660156 4.828125 10.53125 C4.94414062 12.46097656 4.94414062 12.46097656 5.0625 14.4296875 C5.12514999 15.78645142 5.18764928 17.1432223 5.25 18.5 C5.36601562 20.46839844 5.36601562 20.46839844 5.484375 22.4765625 C5.69815839 26.31702834 5.85263865 30.15649288 6 34 C6.07283203 35.1446875 6.14566406 36.289375 6.22070312 37.46875 C6.55378817 45.12501469 6.55378817 45.12501469 4.2421875 48.77734375 C-0.71800495 52.17776484 -5.74522978 55.42352508 -10.875 58.5625 C-11.93847656 59.22185547 -13.00195312 59.88121094 -14.09765625 60.56054688 C-16.15394136 61.83135662 -18.21592922 63.09299655 -20.28417969 64.34423828 C-21.88523334 65.32035711 -23.47505183 66.31613161 -25.03613281 67.35498047 C-28.54385466 69.61619765 -31.69273169 70.74750421 -35.91552734 70.51171875 C-40.19302979 69.46163148 -43.40666125 66.67981773 -46.8125 64 C-47.59423584 63.40856201 -48.37597168 62.81712402 -49.18139648 62.20776367 C-50.74141057 61.0274083 -52.29632626 59.84028001 -53.84570312 58.64599609 C-56.70303283 56.46284595 -59.62795672 54.39049465 -62.5625 52.3125 C-66.8772137 49.24557261 -66.8772137 49.24557261 -68 47 C-68.375 44.1875 -68.375 44.1875 -68 41 C-64.74423838 37.30169692 -61.20488932 34.61881356 -57.08203125 31.953125 C-56.51555878 31.58409561 -55.9490863 31.21506622 -55.365448 30.83485413 C-53.51845203 29.63361875 -51.66590865 28.44131324 -49.8125 27.25 C-47.86319021 25.99126466 -45.91469257 24.73128164 -43.96644592 23.47090149 C-42.63451149 22.60923819 -41.30209967 21.74831239 -39.96922302 20.8881073 C-35.46682786 17.97500619 -31.0166776 14.99333776 -26.5859375 11.97265625 C-24.84349541 10.79519592 -23.09991787 9.61944099 -21.35580444 8.44445801 C-19.72144632 7.33553285 -18.09944775 6.20846124 -16.4777832 5.08105469 C-6.84665645 -1.37541045 -6.84665645 -1.37541045 0 0 Z " fill="#020201" transform="translate(460,228)"/>
<path d="M0 0 C3.63502443 1.66003823 5.10890357 3.21871023 7.25 6.625 C8.03117187 7.85089844 8.03117187 7.85089844 8.828125 9.1015625 C9.21484375 9.72804687 9.6015625 10.35453125 10 11 C8.63984311 14.18492394 7.2870616 15.82581895 4.46484375 17.8125 C3.74675537 18.32433838 3.02866699 18.83617676 2.28881836 19.36352539 C1.5128833 19.90356201 0.73694824 20.44359863 -0.0625 21 C-0.86743896 21.57032959 -1.67237793 22.14065918 -2.50170898 22.72827148 C-4.99584807 24.4931558 -7.49770408 26.24670747 -10 28 C-11.45902886 29.03156905 -12.91739525 30.06407592 -14.375 31.09765625 C-17.15453285 33.06803549 -19.94037086 35.02899145 -22.73046875 36.984375 C-25.75622445 39.10993495 -28.75276753 41.27142687 -31.73828125 43.453125 C-32.51421631 44.01507568 -33.29015137 44.57702637 -34.08959961 45.15600586 C-35.58472393 46.23969548 -37.07410134 47.33136978 -38.55688477 48.43188477 C-39.22647217 48.91455811 -39.89605957 49.39723145 -40.5859375 49.89453125 C-41.1742334 50.32612549 -41.7625293 50.75771973 -42.36865234 51.20239258 C-44 52 -44 52 -47 51 C-48.82421875 48.71484375 -48.82421875 48.71484375 -50.6875 45.9375 C-51.31011719 45.01839844 -51.93273437 44.09929687 -52.57421875 43.15234375 C-53.04472656 42.44207031 -53.51523438 41.73179687 -54 41 C-52.67908291 37.94233658 -51.46795581 36.30979489 -48.71875 34.44140625 C-48.05101562 33.97992188 -47.38328125 33.5184375 -46.6953125 33.04296875 C-45.60863281 32.31013672 -45.60863281 32.31013672 -44.5 31.5625 C-42.94717907 30.49195451 -41.39512005 29.4203032 -39.84375 28.34765625 C-39.04195312 27.79609863 -38.24015625 27.24454102 -37.4140625 26.67626953 C-33.56903543 24.00637108 -29.78579432 21.25292817 -26 18.5 C-17.38729225 12.2563064 -8.70434375 6.11507694 0 0 Z " fill="#030404" transform="translate(282,130)"/>
<path d="M0 0 C0.07608962 7.31397841 0.12861664 14.62785466 0.16479492 21.94213867 C0.17987761 24.4301332 0.20034654 26.91810117 0.22631836 29.40600586 C0.26272337 32.98297688 0.27973184 36.55959622 0.29296875 40.13671875 C0.30845261 41.24834885 0.32393646 42.35997894 0.33988953 43.5052948 C0.34011612 44.54599625 0.34034271 45.58669769 0.34057617 46.65893555 C0.34723801 47.5716069 0.35389984 48.48427826 0.36076355 49.42460632 C-0.08096738 52.57800432 -1.14450857 54.43148625 -3 57 C-5.6875 58.8125 -5.6875 58.8125 -8 60 C-7.99242676 59.32050293 -7.98485352 58.64100586 -7.97705078 57.94091797 C-8.24630683 49.78852146 -10.79796102 45.34715955 -15.875 39.125 C-17.14476461 37.50380559 -18.41304235 35.88144532 -19.6796875 34.2578125 C-20.52635986 33.20811279 -20.52635986 33.20811279 -21.39013672 32.13720703 C-23.11358351 29.84920988 -24.56635461 27.47787218 -26 25 C-22.46109324 21.43645168 -18.91897325 17.87614125 -15.3737793 14.31884766 C-14.16715088 13.10717739 -12.96141972 11.89461294 -11.7565918 10.68115234 C-10.02885937 8.9413478 -8.29796998 7.20474035 -6.56640625 5.46875 C-5.75388145 4.64848328 -5.75388145 4.64848328 -4.92494202 3.81164551 C-1.11387171 0 -1.11387171 0 0 0 Z " fill="#F0C150" transform="translate(480,292)"/>
<path d="M0 0 C4.09492916 3.44713883 8.06493546 6.94124536 11.83984375 10.7421875 C12.67451172 11.58007812 13.50917969 12.41796875 14.36914062 13.28125 C15.21669922 14.1371875 16.06425781 14.993125 16.9375 15.875 C17.81212891 16.75414062 18.68675781 17.63328125 19.58789062 18.5390625 C21.72757048 20.6904346 23.86486597 22.84411792 26 25 C23.16163215 29.37855291 20.31227356 33.70197792 17.04296875 37.7734375 C11.34541868 44.91212688 7.13953872 50.37484006 8 60 C1.51894459 56.05500975 1.51894459 56.05500975 0 52 C-0.24050903 49.54486084 -0.24050903 49.54486084 -0.22705078 46.77246094 C-0.22689972 45.73168396 -0.22674866 44.69090698 -0.22659302 43.61859131 C-0.21627045 42.50179993 -0.20594788 41.38500854 -0.1953125 40.234375 C-0.1924826 39.08584045 -0.18965271 37.93730591 -0.18673706 36.75396729 C-0.17554263 33.08587219 -0.15043904 29.4180213 -0.125 25.75 C-0.11496926 23.26302436 -0.10584358 20.77604489 -0.09765625 18.2890625 C-0.07560568 12.19262502 -0.04213525 6.09632996 0 0 Z " fill="#F0C150" transform="translate(32,292)"/>
<path d="M0 0 C3.60841324 1.32427284 6.62238939 2.92705413 9.80078125 5.08203125 C11.14366211 5.98598633 11.14366211 5.98598633 12.51367188 6.90820312 C13.43728516 7.53662109 14.36089844 8.16503906 15.3125 8.8125 C21.48029786 12.98393644 27.65823343 17.09680252 34 21 C32.33996177 24.63502443 30.78128977 26.10890357 27.375 28.25 C26.55773437 28.77078125 25.74046875 29.2915625 24.8984375 29.828125 C23.95871094 30.40820312 23.95871094 30.40820312 23 31 C19.60516945 29.44338415 16.3001663 27.74810789 13 26 C12.39027344 25.68353516 11.78054687 25.36707031 11.15234375 25.04101562 C-0.2851331 18.97568699 -0.2851331 18.97568699 -1.92578125 14.44140625 C-1.93782424 11.8039907 -1.60293077 9.56350983 -1 7 C-0.82578826 5.62593557 -0.65812994 4.25100789 -0.5 2.875 C-0.335 1.92625 -0.17 0.9775 0 0 Z " fill="#C1DBF5" transform="translate(63,250)"/>
<path d="M0 0 C0.66 0 1.32 0 2 0 C2.40652239 2.33750376 2.71679691 4.64638476 3 7 C3.21015747 8.14734619 3.21015747 8.14734619 3.42456055 9.31787109 C3.74236763 12.15920765 3.73697671 14.22540648 3 17 C-0.09609023 20.36127344 -3.75232288 22.47733022 -7.6875 24.75 C-8.69490234 25.389375 -9.70230469 26.02875 -10.74023438 26.6875 C-16.29086986 30.05818294 -16.29086986 30.05818294 -19 31 C-22.61812808 29.98781686 -25.32641698 28.24940341 -28.3125 26 C-29.00988281 25.484375 -29.70726562 24.96875 -30.42578125 24.4375 C-30.94527344 23.963125 -31.46476562 23.48875 -32 23 C-32 22.34 -32 21.68 -32 21 C-29.67495616 19.41127096 -27.35134451 17.94300216 -24.9375 16.5 C-23.47537749 15.60740698 -22.01447038 14.71282048 -20.5546875 13.81640625 C-19.8028418 13.35508301 -19.05099609 12.89375977 -18.27636719 12.41845703 C-14.65709158 10.16320271 -11.10632642 7.80900766 -7.5625 5.4375 C-6.91853271 5.00824219 -6.27456543 4.57898438 -5.61108398 4.13671875 C-2.66430516 2.24716233 -2.66430516 2.24716233 0 0 Z " fill="#C1DBF5" transform="translate(447,250)"/>
<path d="M0 0 C0.64565918 0.47236084 1.29131836 0.94472168 1.95654297 1.43139648 C5.88950412 3.45845211 9.33189256 3.73729967 13.6953125 4.09765625 C14.93920242 4.21735023 14.93920242 4.21735023 16.20822144 4.33946228 C18.84620267 4.59224307 21.48526843 4.82876123 24.125 5.0625 C26.77168201 5.3012062 29.41781385 5.54359016 32.0632019 5.79624939 C33.70623454 5.95281678 35.35007226 6.1012004 36.99465942 6.24049377 C40.72001331 6.59204353 42.83032203 6.88688135 46 9 C42.92055835 12.06774628 40.2657057 12.36826401 36.00817871 12.44248962 C35.23204224 12.43955399 34.45590576 12.43661835 33.65625 12.43359375 C32.44708923 12.44145653 32.44708923 12.44145653 31.21350098 12.44947815 C29.51230011 12.45589028 27.81105486 12.45457179 26.10986328 12.44604492 C23.50863726 12.43752828 20.90960326 12.46631525 18.30859375 12.49804688 C16.65364649 12.49965889 14.99869535 12.49908135 13.34375 12.49609375 C12.56761353 12.50732773 11.79147705 12.51856171 10.99182129 12.53013611 C7.41478303 12.48401448 5.40987371 12.31770096 2.54101562 10.09399414 C-0.06691098 6.55023836 -0.0949822 4.36918106 0 0 Z " fill="#4A5A76" transform="translate(40,372)"/>
<path d="M0 0 C0.30769231 6.76923077 0.30769231 6.76923077 -2 10 C-5.72869934 12.59478518 -9.76105909 12.2890482 -14.125 12.265625 C-14.90891113 12.26753845 -15.69282227 12.2694519 -16.50048828 12.27142334 C-18.15462567 12.27278175 -19.80877384 12.26910932 -21.46289062 12.26074219 C-23.9911296 12.25003756 -26.51865806 12.26064885 -29.046875 12.2734375 C-30.65625156 12.27211584 -32.26562769 12.26955332 -33.875 12.265625 C-34.6292627 12.26967346 -35.38352539 12.27372192 -36.16064453 12.27789307 C-39.92357595 12.24436433 -42.80710647 12.10421713 -46 10 C-46 9.34 -46 8.68 -46 8 C-39.16448514 6.94360225 -32.33630592 6.02010842 -25.45703125 5.3046875 C-24.30315918 5.18198486 -23.14928711 5.05928223 -21.96044922 4.93286133 C-19.63368642 4.68825293 -17.30586176 4.45351974 -14.97705078 4.22924805 C-13.34678955 4.05582886 -13.34678955 4.05582886 -11.68359375 3.87890625 C-10.22264282 3.73304077 -10.22264282 3.73304077 -8.73217773 3.58422852 C-5.77222966 2.95129529 -2.76188373 0 0 0 Z " fill="#4A5A76" transform="translate(472,372)"/>
<path d="M0 0 C5.28 0 10.56 0 16 0 C16 5.28 16 10.56 16 16 C10.72 16 5.44 16 0 16 C0 10.72 0 5.44 0 0 Z " fill="#000000" transform="translate(248,288)"/>
<path d="M0 0 C3.93711437 -0.14492719 7.87354625 -0.23394537 11.8125 -0.3125 C13.49182617 -0.3753418 13.49182617 -0.3753418 15.20507812 -0.43945312 C16.81479492 -0.46362305 16.81479492 -0.46362305 18.45703125 -0.48828125 C19.44678955 -0.51446533 20.43654785 -0.54064941 21.45629883 -0.56762695 C24 0 24 0 25.90893555 2.34301758 C27 5 27 5 26 8 C22.06288563 8.14492719 18.12645375 8.23394537 14.1875 8.3125 C12.50817383 8.3753418 12.50817383 8.3753418 10.79492188 8.43945312 C9.72177734 8.45556641 8.64863281 8.47167969 7.54296875 8.48828125 C6.55321045 8.51446533 5.56345215 8.54064941 4.54370117 8.56762695 C2 8 2 8 0.09106445 5.65698242 C-1 3 -1 3 0 0 Z " fill="#F3B752" transform="translate(459,168)"/>
<path d="M0 0 C0.9897583 0.02618408 1.9795166 0.05236816 2.99926758 0.0793457 C4.60898437 0.10351562 4.60898437 0.10351562 6.2512207 0.12817383 C7.37077148 0.17006836 8.49032227 0.21196289 9.64379883 0.25512695 C10.77495117 0.27768555 11.90610352 0.30024414 13.0715332 0.32348633 C15.86777859 0.38247885 18.66137979 0.46474456 21.45629883 0.56762695 C22.45629883 3.56762695 22.45629883 3.56762695 21.36523438 6.22460938 C19.45629883 8.56762695 19.45629883 8.56762695 16.91259766 9.13525391 C15.92283936 9.10906982 14.93308105 9.08288574 13.91333008 9.0559082 C12.84018555 9.03979492 11.76704102 9.02368164 10.66137695 9.00708008 C9.54182617 8.96518555 8.42227539 8.92329102 7.26879883 8.88012695 C6.13764648 8.85756836 5.00649414 8.83500977 3.84106445 8.81176758 C1.04481907 8.75277506 -1.74878214 8.67050935 -4.54370117 8.56762695 C-5.54370117 5.56762695 -5.54370117 5.56762695 -4.45263672 2.91064453 C-2.54370117 0.56762695 -2.54370117 0.56762695 0 0 Z " fill="#F3B752" transform="translate(31.543701171875,167.432373046875)"/>
</svg>
