<?xml version="1.0" encoding="UTF-8"?>
<svg version="1.1" xmlns="http://www.w3.org/2000/svg" width="512" height="512">
<path d="M0 0 C2.86972365 1.32889399 3.87079518 2.48863021 6 5 C6.65234375 8.1796875 6.65234375 8.1796875 7 11 C7.68247803 10.92483154 8.36495605 10.84966309 9.06811523 10.7722168 C26.97788121 8.83780416 44.89510647 7.46807881 62.875 6.375 C64.390439 6.28174942 64.390439 6.28174942 65.93649292 6.18661499 C89.41965812 4.75190165 112.86635051 3.84209235 136.39453125 3.796875 C138.66261308 3.78993491 140.93069474 3.78293985 143.19877625 3.77589417 C150.40335294 3.75675731 157.60790088 3.75197702 164.8125 3.75 C166.03848907 3.74926357 167.26447815 3.74852715 168.52761841 3.7477684 C205.45512453 3.72969362 242.22322322 4.07839386 279.06536865 6.78460693 C282.03487945 7.00256005 285.00488184 7.21230354 287.97509766 7.42041016 C316.58343934 9.44078842 316.58343934 9.44078842 327 11 C327.04125 10.113125 327.0825 9.22625 327.125 8.3125 C328.0486899 4.81567396 329.13944666 3.08837453 332.05859375 0.921875 C335.95119562 -0.92652347 339.83705093 -0.86362639 344 0 C347.11414036 1.70431827 349.38809699 3.77619399 351 7 C351.1163585 8.81609711 351.16965106 10.63638196 351.19287109 12.45605469 C351.21696548 14.16858429 351.21696548 14.16858429 351.24154663 15.91571045 C351.28593888 21.1443098 351.32750897 26.3728214 351.35009766 31.6015625 C351.36342128 34.36036454 351.39124243 37.11842411 351.43212891 39.87695312 C351.49101723 43.8502396 351.50876985 47.82316707 351.5234375 51.796875 C351.54610687 53.02831238 351.56877625 54.25974976 351.59213257 55.52850342 C351.56856521 65.07353463 351.56856521 65.07353463 348.59228516 68.76269531 C344.53447962 72.26483601 341.78939634 72.40802683 336.546875 72.33984375 C332.25785132 71.76753538 330.80274827 70.29322922 328 67 C325.75783927 61.59843096 326 58.13173189 326 52 C316.595 51.01 316.595 51.01 307 50 C307.82242187 51.75441406 308.64484375 53.50882813 309.4921875 55.31640625 C315.04760661 67.20214737 320.5627095 79.10012893 325.8125 91.125 C326.23837402 92.0951001 326.66424805 93.0652002 327.10302734 94.06469727 C327.48797363 94.95342529 327.87291992 95.84215332 328.26953125 96.7578125 C328.60573486 97.5327002 328.94193848 98.30758789 329.28833008 99.10595703 C330 101 330 101 330 103 C330.6290625 102.57847656 331.258125 102.15695313 331.90625 101.72265625 C337.41964913 98.19374867 341.43640403 96.24309615 348 96 C348.04125 95.34 348.0825 94.68 348.125 94 C350.49132235 85.88689481 356.83526706 80.9440149 364 77 C367.68099325 75.77300225 371.08166692 75.85680188 374.9140625 75.8671875 C375.68430756 75.86623077 376.45455261 75.86527405 377.24813843 75.86428833 C378.87375978 75.86360849 380.49938387 75.86544912 382.125 75.86962891 C384.62245721 75.87499454 387.11973577 75.86966985 389.6171875 75.86328125 C391.1953129 75.86394178 392.77343819 75.86522242 394.3515625 75.8671875 C395.10257233 75.86516327 395.85358215 75.86313904 396.62734985 75.86105347 C401.88503878 75.88503878 401.88503878 75.88503878 403 77 C404.46823208 97.95376927 404.46823208 97.95376927 398 106 C391.54115149 113.06689911 385.50169487 116.04793247 375.97265625 116.51171875 C373.33517064 116.58443139 370.70031032 116.64316973 368.0625 116.6875 C366.69723375 116.72072013 365.33199787 116.75521404 363.96679688 116.79101562 C360.64461414 116.87318976 357.3226853 116.94244368 354 117 C352.64870562 119.51256298 351.31925796 122.03317942 350 124.5625 C349.6184375 125.26697266 349.236875 125.97144531 348.84375 126.69726562 C346.40833971 131.41587305 345.55359181 134.69192767 346 140 C346.76554199 139.97381592 347.53108398 139.94763184 348.31982422 139.9206543 C351.83800161 139.81577278 355.35584882 139.75138501 358.875 139.6875 C360.68097656 139.6246582 360.68097656 139.6246582 362.5234375 139.56054688 C370.62297699 139.45049878 376.15323816 140.64079828 383 145 C383.9075 145.556875 384.815 146.11375 385.75 146.6875 C390.12296195 151.18193312 394.88986036 157.88094972 395.0625 164.33740234 C395.041875 165.24441895 395.02125 166.15143555 395 167.0859375 C394.85239586 182.86002291 394.85239586 182.86002291 402.67578125 195.92578125 C410.35318222 206.08059564 409.96545014 218.67838055 410.63623047 230.84619141 C410.77383787 233.23979837 410.93308002 235.63128541 411.09375 238.0234375 C411.14239197 239.11415054 411.14239197 239.11415054 411.1920166 240.22689819 C411.52428063 245.08408119 412.73993703 247.4535513 416 251 C419.18464819 256.80472799 419.51047638 262.68429592 419.4375 269.1875 C419.43210205 270.10861572 419.4267041 271.02973145 419.42114258 271.97875977 C419.23313582 280.46135738 417.88060598 288.26456481 413.3984375 295.6328125 C411.35567458 300.55142042 411.4475487 305.16193057 411.4375 310.4375 C411.38239258 311.9544043 411.38239258 311.9544043 411.32617188 313.50195312 C411.29571768 318.6893183 411.46840122 322.04451943 414.97265625 326.03515625 C415.512854 326.54570557 416.05305176 327.05625488 416.60961914 327.58227539 C419.66867628 330.70149309 419.19750954 334.70512113 419.25 338.8125 C419.27578125 340.01519531 419.3015625 341.21789062 419.328125 342.45703125 C418.71500538 349.07726337 415.3398913 353.46269938 410.66796875 357.921875 C369.38054709 390.08133081 294.10867026 388.38970318 244 391 C242.83339812 391.06079443 242.83339812 391.06079443 241.64322853 391.12281704 C226.58916387 391.88696944 211.57191759 392.16284394 196.5 392.16796875 C194.20491518 392.17119984 191.90983054 392.17456512 189.61474609 392.17805481 C184.83137538 392.18398918 180.04802256 392.18590087 175.26464844 392.18530273 C170.45015674 392.1852219 165.63576107 392.19210556 160.82128906 392.20581055 C131.81566669 392.28702721 102.94415568 391.97849587 74 390 C72.83815186 389.92194122 71.67630371 389.84388245 70.47924805 389.76345825 C63.89581139 389.31073817 57.32223593 388.77995889 50.75 388.1875 C49.33257004 388.06202789 49.33257004 388.06202789 47.88650513 387.934021 C-58.77410092 378.40895406 -58.77410092 378.40895406 -82.65234375 350.83203125 C-85.35341497 347.16014023 -85.19360356 343.60052118 -85.25 339.1875 C-85.27578125 337.98480469 -85.3015625 336.78210938 -85.328125 335.54296875 C-84.96422896 331.61375795 -84.06878847 329.34081381 -82 326 C-81.28972656 325.44441406 -80.57945313 324.88882812 -79.84765625 324.31640625 C-76.70929111 320.38183854 -77.36897651 315.80998183 -77.4375 310.9375 C-77.44410645 309.89779053 -77.45071289 308.85808105 -77.45751953 307.78686523 C-77.61988794 301.28855483 -78.25233122 296.03200834 -81.7109375 290.37890625 C-85.23477428 283.87582565 -85.38736755 276.85155677 -85.375 269.625 C-85.37411377 268.6983252 -85.37322754 267.77165039 -85.37231445 266.81689453 C-85.25996079 260.34600794 -84.69763921 254.5155421 -81 249 C-80.49758789 248.62955566 -79.99517578 248.25911133 -79.47753906 247.87744141 C-77.19422366 244.97613681 -77.37270923 241.77573715 -77.19140625 238.21875 C-77.08271698 236.63801845 -76.97399182 235.05728936 -76.86523438 233.4765625 C-76.71184655 230.99992226 -76.56384972 228.5230346 -76.41870117 226.04589844 C-75.67138532 213.7170459 -74.98440728 202.90176607 -66.3125 193.3125 C-60.85895491 186.50639775 -61.09697523 179.18379814 -61.3371582 170.75317383 C-61.49368134 162.01861104 -58.80119702 156.56491366 -54.3125 149.25 C-48.39083147 143.48837656 -41.50299989 139.86039086 -33.23828125 139.90234375 C-32.12001953 139.90556641 -31.00175781 139.90878906 -29.84960938 139.91210938 C-28.68236328 139.92048828 -27.51511719 139.92886719 -26.3125 139.9375 C-25.13365234 139.94201172 -23.95480469 139.94652344 -22.74023438 139.95117188 C-19.82677211 139.96296727 -16.91341137 139.9794273 -14 140 C-12.10912773 135.56638124 -12.10912773 135.56638124 -12.58496094 130.92236328 C-13.59044415 128.73875347 -14.69184283 126.65504173 -15.875 124.5625 C-16.26558594 123.83095703 -16.65617187 123.09941406 -17.05859375 122.34570312 C-18.01933994 120.55309133 -19.00703942 118.7749703 -20 117 C-21.23919189 116.99383667 -21.23919189 116.99383667 -22.50341797 116.98754883 C-25.6164986 116.96031754 -28.72828543 116.91097161 -31.84082031 116.84741211 C-33.83116399 116.81325235 -35.82188304 116.80380856 -37.8125 116.79492188 C-46.9424383 116.58742328 -54.27966957 115.39101758 -61.13818359 109.01098633 C-66.99076517 102.87649614 -69.36461629 97.07041064 -69.3125 88.6796875 C-69.291875 87.83664063 -69.27125 86.99359375 -69.25 86.125 C-69.24484375 85.25875 -69.2396875 84.3925 -69.234375 83.5 C-69.15481151 77.15481151 -69.15481151 77.15481151 -68 76 C-65.45057925 75.86155868 -62.93028401 75.78681696 -60.37890625 75.76171875 C-59.60498032 75.753647 -58.83105438 75.74557526 -58.03367615 75.73725891 C-56.38681287 75.72339227 -54.73992054 75.71268172 -53.09301758 75.70483398 C-50.60374805 75.68778255 -48.11586377 75.64394364 -45.62695312 75.59960938 C-35.94235285 75.50319635 -27.44763801 75.60871487 -19.5625 81.96484375 C-13 90.25 -13 90.25 -13 96 C-11.5459375 96.0928125 -11.5459375 96.0928125 -10.0625 96.1875 C-6.66088296 96.6461012 -4.21050287 97.84085989 -1.24609375 99.55078125 C-0.44743896 100.00751221 0.35121582 100.46424316 1.17407227 100.93481445 C1.77662842 101.28632568 2.37918457 101.63783691 3 102 C3.30067383 101.34854004 3.60134766 100.69708008 3.91113281 100.02587891 C11.60742188 83.35058594 19.30371094 66.67529297 27 50 C20.4 50.66 13.8 51.32 7 52 C7.103125 54.02125 7.20625 56.0425 7.3125 58.125 C7.33667138 65.52144112 7.33667138 65.52144112 4.625 68.75 C0.53842617 72.25277757 -2.18764371 72.38983274 -7.44921875 72.359375 C-11.55868504 71.78039966 -13.21349577 70.00085071 -16 67 C-17.30057394 64.39885213 -17.15569952 62.45695079 -17.19287109 59.54394531 C-17.20893402 58.40225891 -17.22499695 57.26057251 -17.24154663 56.08428955 C-17.28593888 50.8556902 -17.32750897 45.6271786 -17.35009766 40.3984375 C-17.36342128 37.63963546 -17.39124243 34.88157589 -17.43212891 32.12304688 C-17.49101723 28.1497604 -17.50876985 24.17683293 -17.5234375 20.203125 C-17.54610687 18.97168762 -17.56877625 17.74025024 -17.59213257 16.47149658 C-17.56856521 6.92646537 -17.56856521 6.92646537 -14.59228516 3.23730469 C-10.03039281 -0.69989455 -5.87348725 -0.79152661 0 0 Z " fill="#3C332C" transform="translate(89,88)"/>
<path d="M0 0 C0.66 0 1.32 0 2 0 C3.5234375 1.73046875 3.5234375 1.73046875 5.375 4.1875 C47.82135289 58.31423417 115.53143663 82.30430001 181.7109375 90.421875 C183.47343427 90.61931895 185.23646874 90.81202009 187 91 C187.86149658 91.09571289 188.72299316 91.19142578 189.6105957 91.29003906 C199.53184846 92.26375449 209.4779725 92.24272473 219.4375 92.25 C220.39665314 92.25100708 221.35580627 92.25201416 222.34402466 92.25305176 C247.82250868 92.23512383 273.64075682 91.24691592 298.56005859 85.54150391 C301.18411258 84.95913931 303.81630526 84.45034127 306.45703125 83.94921875 C358.26049216 73.86248718 415.63511703 45.78010725 446.73828125 1.46875 C447.15464844 0.9840625 447.57101562 0.499375 448 0 C448.66 0 449.32 0 450 0 C454.58460803 5.88213861 457.7556728 11.65846955 459 19 C459.16628906 19.90878906 459.33257812 20.81757813 459.50390625 21.75390625 C460.05819345 25.38077764 460.33498422 28.96307932 460.5625 32.625 C460.68818359 34.56246094 460.68818359 34.56246094 460.81640625 36.5390625 C460.84412109 37.23475342 460.87183594 37.93044434 460.90039062 38.6472168 C460.97362715 40.37707074 461.08768582 42.10531789 461.22460938 43.83129883 C461.63531461 51.92258187 459.7539249 56.72763586 455.375 63.4375 C454.49690674 64.84684814 454.49690674 64.84684814 453.60107422 66.28466797 C451.76375645 69.21000632 449.88678411 72.10637359 448 75 C447.42314453 75.90024902 446.84628906 76.80049805 446.25195312 77.72802734 C442.86621978 83.00732806 439.39055939 88.213578 435.81787109 93.36816406 C434.57732587 95.16417232 433.34896474 96.96864248 432.13134766 98.78027344 C418.88134055 118.4177614 418.88134055 118.4177614 406 121 C404.71666459 121.36995554 403.43678024 121.75204168 402.16015625 122.14453125 C379.26958658 128.96727886 357.81549721 122.03732454 336.21850586 113.62890625 C327.8414432 110.38997726 322.01832239 109.54383347 313.4375 112.25 C311.84989016 112.72060298 310.26133182 113.18801714 308.671875 113.65234375 C307.88748047 113.8829248 307.10308594 114.11350586 306.29492188 114.35107422 C299.36631602 116.31024809 292.23678926 118.25415711 285 118 C284.855625 116.865625 284.71125 115.73125 284.5625 114.5625 C284.38828522 111.19222799 284.38828522 111.19222799 283 110 C281.49681296 109.90208305 279.98903867 109.87368201 278.48266602 109.87301636 C277.50669464 109.87019653 276.53072327 109.86737671 275.525177 109.86447144 C274.44565765 109.86649567 273.36613831 109.8685199 272.25390625 109.87060547 C270.55897537 109.86797699 270.55897537 109.86797699 268.82980347 109.86529541 C265.07402027 109.86087418 261.31828372 109.86381584 257.5625 109.8671875 C254.96557608 109.86651454 252.36865222 109.86554458 249.77172852 109.86428833 C244.32079411 109.86281099 238.86987742 109.86487249 233.41894531 109.86962891 C227.10860771 109.8750715 220.79830241 109.87330883 214.48796558 109.8678025 C208.428323 109.86272569 202.36869628 109.86325291 196.30905151 109.86618423 C193.72533158 109.86685377 191.14161083 109.86602415 188.55789185 109.86370468 C184.95393657 109.86117975 181.3500443 109.8650165 177.74609375 109.87060547 C176.6665744 109.86858124 175.58705505 109.86655701 174.474823 109.86447144 C173.01086594 109.86870117 173.01086594 109.86870117 171.51733398 109.87301636 C170.66413071 109.87339338 169.81092743 109.87377041 168.93186951 109.87415886 C166.99295174 109.78716555 166.99295174 109.78716555 166 111 C165.63239269 113.32817964 165.29758419 115.6618385 165 118 C156.21410917 117.3300519 147.92547601 115.10277821 139.42382812 112.86035156 C137.52250619 112.3615657 135.61673996 111.87982032 133.7109375 111.3984375 C132.58993652 111.10630371 131.46893555 110.81416992 130.31396484 110.51318359 C125.06750796 109.7007442 120.42206115 110.62526461 115.51171875 112.5234375 C114.3364563 112.96961426 114.3364563 112.96961426 113.13745117 113.42480469 C111.92472534 113.89515137 111.92472534 113.89515137 110.6875 114.375 C108.99032115 115.01498089 107.29241122 115.65302662 105.59375 116.2890625 C104.79195313 116.58973633 103.99015625 116.89041016 103.1640625 117.20019531 C94.64057878 120.35034566 85.89273202 122.19756591 77 124 C76.14664063 124.18304688 75.29328125 124.36609375 74.4140625 124.5546875 C60.39721247 127.14032003 41.77415067 123.06817253 30 115 C28.36938477 113.24853516 28.36938477 113.24853516 26.94140625 111.2890625 C26.39798584 110.55002686 25.85456543 109.81099121 25.29467773 109.04956055 C24.72305908 108.24945557 24.15144043 107.44935059 23.5625 106.625 C22.95414307 105.78428955 22.34578613 104.9435791 21.71899414 104.07739258 C14.88164313 94.55679671 8.33805558 84.85880773 2 75 C1.38044434 74.05060547 0.76088867 73.10121094 0.12255859 72.12304688 C-1.74142288 69.24650256 -3.56305825 66.34704351 -5.375 63.4375 C-5.940979 62.57020264 -6.50695801 61.70290527 -7.09008789 60.80932617 C-11.19172771 54.06279374 -11.61099454 48.78239051 -11 41 C-10.94757453 39.58343931 -10.89770714 38.1667792 -10.8515625 36.75 C-9.45774897 13.6799829 -9.45774897 13.6799829 -2 3 C-1.34 2.01 -0.68 1.02 0 0 Z " fill="#D75158" transform="translate(31,283)"/>
<path d="M0 0 C4.09518246 0.65424023 7.55890648 1.97165391 11.35546875 3.625 C12.61740291 4.16849496 13.8795372 4.71152544 15.1418457 5.25415039 C15.80125153 5.53920441 16.46065735 5.82425842 17.14004517 6.11795044 C58.37739976 23.88312401 89.8308401 32.55467152 133 16 C134.58632379 15.22750322 136.16868972 14.44680106 137.74609375 13.65625 C142.16090355 11.64969751 144.92191431 12.05339433 149.625 13.4375 C151.08371714 13.84057765 152.54341732 14.24010891 154.00390625 14.63671875 C154.79039551 14.85763184 155.57688477 15.07854492 156.38720703 15.30615234 C161.40296438 16.63812603 166.48739097 17.67154913 171.5625 18.75 C173.56389386 19.18186655 175.56520366 19.61412299 177.56640625 20.046875 C179.04422566 20.36479339 180.52207188 20.68258736 182 21 C182.06058594 21.92683594 182.12117187 22.85367187 182.18359375 23.80859375 C182.26738281 25.00613281 182.35117188 26.20367187 182.4375 27.4375 C182.51871094 28.63246094 182.59992188 29.82742188 182.68359375 31.05859375 C182.67656114 33.88570244 182.67656114 33.88570244 184 35 C185.50318704 35.09791695 187.01096133 35.12631799 188.51733398 35.12698364 C189.49330536 35.12980347 190.46927673 35.13262329 191.474823 35.13552856 C192.55434235 35.13350433 193.63386169 35.1314801 194.74609375 35.12939453 C196.44102463 35.13202301 196.44102463 35.13202301 198.17019653 35.13470459 C201.92597973 35.13912582 205.68171628 35.13618416 209.4375 35.1328125 C212.03442392 35.13348546 214.63134778 35.13445542 217.22827148 35.13571167 C222.67920589 35.13718901 228.13012258 35.13512751 233.58105469 35.13037109 C239.89139229 35.1249285 246.20169759 35.12669117 252.51203442 35.1321975 C258.571677 35.13727431 264.63130372 35.13674709 270.69094849 35.13381577 C273.27466842 35.13314623 275.85838917 35.13397585 278.44210815 35.13629532 C282.04606343 35.13882025 285.6499557 35.1349835 289.25390625 35.12939453 C290.3334256 35.13141876 291.41294495 35.13344299 292.525177 35.13552856 C293.98913406 35.13129883 293.98913406 35.13129883 295.48266602 35.12698364 C296.33586929 35.12660662 297.18907257 35.12622959 298.06813049 35.12584114 C300.00704826 35.21283445 300.00704826 35.21283445 301 34 C301.23481693 31.81707226 301.41363323 29.62796826 301.5625 27.4375 C301.64628906 26.23996094 301.73007812 25.04242188 301.81640625 23.80859375 C301.87699219 22.88175781 301.93757813 21.95492188 302 21 C306.08886147 20.03759818 310.17823533 19.07741143 314.26806641 18.11914062 C315.65492271 17.79388023 317.04164529 17.46804903 318.42822266 17.14160156 C321.74887298 16.35999001 325.07092225 15.58733767 328.3984375 14.83544922 C330.56994866 14.33172693 332.73487393 13.79599282 334.8828125 13.19970703 C341.42774761 11.50122523 345.28033794 12.65113225 351.25 15.625 C352.90999836 16.38755206 354.57279257 17.1440463 356.23828125 17.89453125 C357.04604004 18.26143066 357.85379883 18.62833008 358.68603516 19.00634766 C363.94866986 21.26620451 369.46014407 22.58948318 375 24 C375.95519531 24.29777344 376.91039062 24.59554688 377.89453125 24.90234375 C395.02028061 29.98618453 410.4865864 26.33815585 427 21 C427.92441895 20.70561035 428.84883789 20.4112207 429.80126953 20.10791016 C444.70011496 15.30812496 459.06840435 9.35954045 473.41064453 3.10986328 C474.26513184 2.7436084 475.11961914 2.37735352 476 2 C476.88929199 1.6169873 477.77858398 1.23397461 478.69482422 0.83935547 C481.31271659 -0.11386567 482.45925049 -0.08889265 485 1 C486.60914863 4.21829725 486.46321846 7.50955106 486 11 C479.49978338 23.7504249 464.2623947 28.24408559 451.55541992 32.45556641 C441.75347146 35.55237138 431.76708217 37.60762512 421.67285156 39.49755859 C419.41004713 39.92291953 417.15410378 40.37077423 414.8984375 40.83203125 C369.05373654 49.70673009 321.03477421 51.67931462 274.44891357 51.97784424 C271.31579717 51.99797132 268.18272185 52.021602 265.04963589 52.04594135 C227.66273544 52.33046855 190.33176775 52.32739903 153 50 C152.16645996 49.94908203 151.33291992 49.89816406 150.47412109 49.84570312 C125.8370895 48.32839617 101.41609549 45.61099943 77 42 C75.83855469 41.82855469 74.67710938 41.65710938 73.48046875 41.48046875 C14.36921214 32.51538298 14.36921214 32.51538298 0.05859375 14.515625 C-2.44658187 10.92887909 -2.49706304 7.25452261 -2 3 C-1.34 2.01 -0.68 1.02 0 0 Z " fill="#D64F57" transform="translate(14,420)"/>
<path d="M0 0 C5.25054514 0.01039753 10.50109539 0.0148321 15.75164795 0.01983643 C25.97627037 0.03042625 36.20087066 0.04739675 46.42547607 0.06866455 C42.305263 4.97858166 38.02799809 9.61045584 33.48968506 14.1338501 C32.82384399 14.80144348 32.15800293 15.46903687 31.47198486 16.15686035 C29.29100558 18.34220734 27.10642877 20.52391563 24.92156982 22.7053833 C23.39498028 24.23264719 21.86853914 25.76005943 20.34223938 27.28761292 C17.15228774 30.47903451 13.96054539 33.66865134 10.76751709 36.85699463 C6.67979322 40.93901195 2.59658832 45.02551546 -1.48529148 49.11337566 C-4.63276958 52.26447007 -7.78262898 55.41317542 -10.93321037 58.56116676 C-12.43980194 60.06709253 -13.94565456 61.57375796 -15.45074654 63.08118248 C-17.55412695 65.18710802 -19.66069601 67.289792 -21.76812744 69.3916626 C-22.38592575 70.01148514 -23.00372406 70.63130768 -23.64024353 71.26991272 C-25.26738687 72.88912858 -26.91336809 74.48445128 -28.57452393 76.06866455 C-29.39919662 76.85610046 -30.22386932 77.64353638 -31.0735321 78.45483398 C-34.34255615 80.56425749 -36.52229916 80.56749226 -40.39678955 80.56695557 C-41.39533211 80.57523376 -41.39533211 80.57523376 -42.41404724 80.5836792 C-43.85229042 80.59296981 -45.29061588 80.59312864 -46.72886658 80.58508492 C-49.00779122 80.57242066 -51.28551074 80.58377391 -53.56439209 80.60112 C-57.58039488 80.62779129 -61.59610084 80.63341681 -65.61218262 80.63201904 C-72.03971593 80.62978853 -78.46688205 80.64395782 -84.89427185 80.6876049 C-87.13509529 80.69742539 -89.3753386 80.68873616 -91.6161499 80.6789093 C-92.99485654 80.68505516 -94.37356004 80.69196744 -95.7522583 80.69976807 C-96.95185181 80.6988063 -98.15144531 80.69784454 -99.38739014 80.69685364 C-102.88790755 81.10522387 -104.66402825 82.16192937 -107.57452393 84.06866455 C-110.987854 84.40924072 -110.987854 84.40924072 -114.84405518 84.3616333 C-115.52505783 84.35738846 -116.20606049 84.35314362 -116.90769958 84.34877014 C-119.06788851 84.33207065 -121.22712035 84.29443767 -123.38702393 84.25616455 C-124.85771351 84.2411063 -126.32841782 84.22741989 -127.7991333 84.21514893 C-131.3912375 84.18219669 -134.98278719 84.13047628 -138.57452393 84.06866455 C-131.93035459 69.60994375 -124.71014041 55.47509057 -117.33410645 41.3807373 C-115.33195911 37.54697823 -113.37507316 33.69335727 -111.44561768 29.8225708 C-110.96721436 28.87494873 -110.48881104 27.92732666 -109.99591064 26.95098877 C-109.12721592 25.22827006 -108.2696253 23.49987767 -107.42657471 21.76446533 C-102.97407158 13.02179942 -96.70525689 6.66566883 -87.56671143 2.9631958 C-82.68328718 1.50326871 -77.99054828 1.29351311 -72.91937256 1.14720154 C-70.45412621 1.06463202 -67.99203359 0.94867299 -65.52838135 0.82769775 C-43.69169595 -0.18504794 -21.85471805 -0.04798674 0 0 Z " fill="#615657" transform="translate(251.57452392578125,143.93133544921875)"/>
<path d="M0 0 C1.06398514 -0.00686325 2.12797028 -0.0137265 3.22419739 -0.02079773 C6.739526 -0.0390914 10.25440941 -0.03522441 13.76977539 -0.02954102 C16.21448411 -0.03410156 18.65919153 -0.03940675 21.10389709 -0.04542542 C26.22752084 -0.05436158 31.35098875 -0.05192749 36.47460938 -0.04199219 C43.03979143 -0.03050197 49.60443568 -0.05071291 56.16954708 -0.07990932 C61.21817948 -0.09825712 66.26668267 -0.09798164 71.31534004 -0.0922718 C73.73584307 -0.09211842 76.15635476 -0.09817704 78.5768261 -0.11056328 C81.96171666 -0.12544396 85.34560936 -0.11481652 88.73046875 -0.09765625 C89.72962311 -0.10732422 90.72877747 -0.11699219 91.75820923 -0.12695312 C97.64081066 -0.06451884 100.92316794 0.53602083 105.42993164 4.40405273 C109.3817306 8.88275822 108.70033236 13.75726942 108.42993164 19.40405273 C108.09489215 22.54806854 107.5590394 25.61882233 106.92993164 28.71655273 C106.7576001 29.56540039 106.58526855 30.41424805 106.40771484 31.28881836 C101.68428009 52.87940334 92.04115152 75.28981763 73.42993164 88.40405273 C60.97998495 96.26954252 46.65134305 97.89839217 32.42993164 95.21655273 C21.06403658 92.5472895 13.66260431 87.59493518 5.42993164 79.40405273 C4.8021582 78.81108398 4.17438477 78.21811523 3.52758789 77.60717773 C-8.39800596 65.38412009 -14.57546083 45.3774379 -17.94506836 29.02905273 C-18.19691895 27.81717285 -18.19691895 27.81717285 -18.45385742 26.58081055 C-19.75828608 19.69241301 -21.04559634 12.40975788 -17.88256836 5.96655273 C-12.46492949 -0.03677683 -7.68459424 -0.03455261 0 0 Z " fill="#4B4B4D" transform="translate(211.570068359375,231.595947265625)"/>
<path d="M0 0 C5.21438043 -0.0988364 10.42821643 -0.17145206 15.64331055 -0.21972656 C17.41749569 -0.23984903 19.19161446 -0.2671503 20.96557617 -0.30175781 C23.51497767 -0.35024992 26.06350295 -0.37296153 28.61328125 -0.390625 C29.40712723 -0.41127014 30.20097321 -0.43191528 31.01887512 -0.45318604 C36.43695409 -0.45539649 36.43695409 -0.45539649 38.95117188 1.578125 C40.33620443 4.77633798 40.75800404 7.67560766 41.16796875 11.140625 C41.25282532 11.84716217 41.33768188 12.55369934 41.42510986 13.28164673 C41.69613301 15.60288581 41.94427365 17.92569214 42.1875 20.25 C42.31682419 21.44716644 42.31682419 21.44716644 42.44876099 22.66851807 C45.53972212 51.7326065 46.59832422 82.45466295 36.0625 110.1875 C35.81048828 110.87263672 35.55847656 111.55777344 35.29882812 112.26367188 C32.3085772 120.20963278 32.3085772 120.20963278 30 123 C27.3127844 124.12043227 24.98583777 124.88646831 22.1875 125.5625 C21.3927124 125.76665527 20.5979248 125.97081055 19.77905273 126.18115234 C-16.42108814 135.18999926 -54.39236405 137.55341412 -91.5625 135.5625 C-92.29976318 135.52334473 -93.03702637 135.48418945 -93.79663086 135.44384766 C-98.73556703 135.13221648 -98.73556703 135.13221648 -101 134 C-101.41064453 131.07592773 -101.41064453 131.07592773 -101.6328125 127.18359375 C-101.67437469 126.49370865 -101.71593689 125.80382355 -101.75875854 125.09303284 C-101.88983874 122.87493904 -102.00727063 120.6563382 -102.125 118.4375 C-102.21140968 116.96804992 -102.29863955 115.49864783 -102.38671875 114.02929688 C-102.77431965 107.34386223 -103.04371122 100.69665198 -103 94 C-100.37241523 95.03758375 -97.76306297 96.10196463 -95.16796875 97.21875 C-94.18441406 97.6415625 -93.20085937 98.064375 -92.1875 98.5 C-91.21167969 98.9228125 -90.23585937 99.345625 -89.23046875 99.78125 C-73.43065782 105.74200092 -56.48062342 104.266586 -41.12109375 97.78515625 C-23.57982254 89.17670879 -12.84080741 72.77014404 -6 55 C-4.08925909 49.40086371 -2.51642841 43.71619707 -1 38 C-0.68933594 36.87464844 -0.37867188 35.74929688 -0.05859375 34.58984375 C2.95935164 22.82423056 4.48394417 11.51309834 0 0 Z " fill="#4D4D4F" transform="translate(324,232)"/>
<path d="M0 0 C0.84929077 -0.00029205 1.69858154 -0.00058411 2.5736084 -0.00088501 C5.37103618 0.00050444 8.16819512 0.01604755 10.96557617 0.03173828 C12.90899002 0.03546978 14.85240574 0.0383161 16.79582214 0.04031372 C21.90368876 0.04793941 27.01144113 0.06757881 32.1192627 0.08972168 C37.33429417 0.110203 42.54934417 0.11932033 47.7644043 0.12939453 C57.99166796 0.15082567 68.21884693 0.18494881 78.44604492 0.22705078 C78.29191812 2.47976178 78.13587058 4.73234142 77.97900391 6.98486328 C77.89230942 8.23928223 77.80561493 9.49370117 77.71629333 10.78613281 C77.44051926 14.29740582 76.97263413 17.74546924 76.44604492 21.22705078 C73.8709089 51.74718136 73.35153584 83.16591733 84.77416992 112.01220703 C85.44604492 114.22705078 85.44604492 114.22705078 84.44604492 116.22705078 C58.49179706 106.85633933 34.15238674 95.46629037 12.44604492 78.22705078 C11.6184668 77.60314453 10.79088867 76.97923828 9.93823242 76.33642578 C0.71857539 69.17497964 -7.43304891 60.79526932 -15.48754883 52.37109375 C-17.14578602 50.65055511 -18.8359419 48.98426345 -20.55395508 47.32470703 C-27.0520405 40.16520935 -26.52787415 31.63299295 -26.22583008 22.43408203 C-25.69970244 16.26460239 -23.65768797 11.62773205 -19.58911133 6.98486328 C-18.93813477 6.44603516 -18.2871582 5.90720703 -17.61645508 5.35205078 C-16.96805664 4.79775391 -16.3196582 4.24345703 -15.65161133 3.67236328 C-10.61859239 0.20454762 -5.97319401 -0.05398933 0 0 Z " fill="#F4EADD" transform="translate(61.553955078125,235.77294921875)"/>
<path d="M0 0 C11.05749848 -0.09288343 22.11490339 -0.16385801 33.17271328 -0.20724869 C38.30790982 -0.2280793 43.44283847 -0.25631405 48.57788086 -0.30175781 C53.53809792 -0.34537723 58.49805809 -0.36917112 63.45845222 -0.37950897 C65.34620263 -0.38687151 67.23393976 -0.40124868 69.12158012 -0.42292023 C89.46598383 -0.64709538 89.46598383 -0.64709538 97.33984375 5.96484375 C97.86707031 6.61582031 98.39429688 7.26679688 98.9375 7.9375 C99.48277344 8.58589844 100.02804687 9.23429688 100.58984375 9.90234375 C106.08317207 18.07385984 105.5098419 29.58465414 104 39 C102.05978826 43.60305336 99.3971369 46.75098048 95.87158203 50.17529297 C93.63505838 52.35580142 91.49252702 54.61562958 89.33984375 56.87890625 C80.47911682 66.07980734 71.53025082 74.74230833 61 82 C60.43571289 82.39799805 59.87142578 82.79599609 59.29003906 83.20605469 C39.18807191 97.36004252 16.68972323 109.17328406 -7 116 C-5.59649707 111.23207161 -4.1866541 106.48872617 -2.5 101.8125 C6.81795207 73.90768563 5.25797375 38.85747947 0.40234375 10.078125 C-0.04060344 6.689364 -0.02595706 3.41423537 0 0 Z " fill="#F4EADD" transform="translate(372,236)"/>
<path d="M0 0 C10.89966575 2.70581233 18.01346886 7.71008104 24.77931213 16.68995667 C25.94112791 18.7880094 27.04426127 20.91920251 28.09962463 23.07276917 C28.39988052 23.68021469 28.70013641 24.28766022 29.00949097 24.91351318 C29.64905371 26.20861667 30.28595985 27.50503498 30.9203949 28.80265808 C32.58383413 32.20470887 34.26613204 35.59741278 35.94728088 38.99073792 C36.44425224 39.99553444 36.44425224 39.99553444 36.95126343 41.02062988 C39.61664945 46.39659341 42.38528823 51.71206735 45.21681213 57.00245667 C49.71386638 65.42422966 53.80165593 74.0124441 57.77931213 82.68995667 C53.45602409 82.76435797 49.13307959 82.81867634 44.80934143 82.85475159 C43.33987431 82.86979733 41.87045179 82.89023904 40.40113831 82.91627502 C38.28359444 82.95284622 36.16664649 82.96972467 34.04884338 82.98292542 C32.776297 82.99863586 31.50375061 83.01434631 30.19264221 83.03053284 C26.77931213 82.68995667 26.77931213 82.68995667 24.7268219 81.19569397 C20.29940388 78.93394456 16.11084062 79.2505533 11.20582581 79.25758362 C10.14195648 79.24739197 9.07808716 79.23720032 7.98197937 79.22669983 C4.47035985 79.19653891 0.95901299 79.18729889 -2.55271912 79.17823792 C-4.98938913 79.16139358 -7.42605044 79.14324368 -9.86270142 79.12384033 C-16.27252992 79.07630787 -22.68232313 79.04651929 -29.0922699 79.020401 C-35.63449573 78.99061203 -42.17659996 78.94407594 -48.71873474 78.89894104 C-61.55265303 78.81287086 -74.38660082 78.74497318 -87.22068787 78.68995667 C-83.05311013 73.74184668 -78.74045191 69.01199288 -74.22825623 64.37770081 C-73.55575836 63.68417511 -72.8832605 62.99064941 -72.19038391 62.27610779 C-66.03265532 55.93661256 -59.83714748 49.63407728 -53.62970638 43.34328556 C-49.46980507 39.12663238 -45.32347952 34.89830432 -41.20628357 30.63990784 C-37.20800334 26.50513713 -33.17853749 22.40327975 -29.12538338 18.32230949 C-27.59229199 16.76779662 -26.07049237 15.2020594 -24.56069756 13.62491035 C-10.30242427 -1.24011483 -10.30242427 -1.24011483 0 0 Z " fill="#5B5153" transform="translate(341.22068786621094,145.31004333496094)"/>
<path d="M0 0 C10.41684682 -0.02289881 20.83367601 -0.04111126 31.25054264 -0.05181217 C36.09127322 -0.05695671 40.9319852 -0.06389387 45.77270508 -0.07543945 C71.51543405 -0.13511668 97.21653245 -0.05872853 122.92602539 1.42944336 C124.1149086 1.49763779 125.30379181 1.56583221 126.52870178 1.63609314 C136.14028031 2.64370446 144.51655355 5.91612941 152 12 C152.67546875 12.52851563 153.3509375 13.05703125 154.046875 13.6015625 C158.53714926 17.55230768 161.23437257 22.00882589 163.8125 27.34765625 C164.15845718 28.05248642 164.50441437 28.75731659 164.8608551 29.48350525 C168.3438384 36.61974881 171.66914043 43.82596082 174.9375 51.0625 C175.24560608 51.74234955 175.55371216 52.4221991 175.87115479 53.12265015 C181.46775191 65.47719782 186.94089211 77.88575379 192.375 90.3125 C192.75147675 91.17118683 193.12795349 92.02987366 193.51583862 92.9145813 C194.58441046 95.35428919 195.64846077 97.79591384 196.7109375 100.23828125 C197.03001572 100.96597717 197.34909393 101.6936731 197.67784119 102.44342041 C199.06014543 105.63519525 200.15318535 108.61274139 201 112 C195.06 112 189.12 112 183 112 C177.45517535 101.42134434 171.93343737 90.8313311 166.4765625 80.20703125 C166.08675201 79.44815109 165.69694153 78.68927094 165.2953186 77.90739441 C163.36043642 74.13938344 161.42744418 70.37041424 159.49658203 66.6003418 C157.69430606 63.08372214 155.88383773 59.57143684 154.06665039 56.0625 C153.34941199 54.67563115 152.63444156 53.28758726 151.92163086 51.8984375 C150.87703098 49.86585692 149.82257364 47.83868107 148.765625 45.8125 C148.16008789 44.64332031 147.55455078 43.47414062 146.93066406 42.26953125 C141.11778419 32.42556474 132.47871018 26.50282105 121.484375 23.5078125 C114.44152473 22.06823619 107.50013399 21.71305241 100.328125 21.47265625 C99.12907532 21.43133072 97.93002563 21.39000519 96.69464111 21.34742737 C78.69385304 20.77774234 60.6825708 20.65139253 42.67462158 20.46777344 C37.7322718 20.41661403 32.78996686 20.36143235 27.84765625 20.30664062 C18.2318085 20.20060389 8.61592049 20.09922201 -1 20 C-0.67 13.4 -0.34 6.8 0 0 Z " fill="#E9E1D2" transform="translate(225,116)"/>
<path d="M0 0 C34.32 0 68.64 0 104 0 C104 15.84 104 31.68 104 48 C69.68 48 35.36 48 0 48 C0 32.16 0 16.32 0 0 Z " fill="#E8E9EA" transform="translate(204,400)"/>
<path d="M0 0 C0.02770475 1.79157359 0.046704 3.58328184 0.0625 5.375 C0.07410156 6.37273437 0.08570313 7.37046875 0.09765625 8.3984375 C-0.02610864 12.96288673 -0.49742193 17.46376547 -1 22 C-78.0241314 55.6697615 -78.0241314 55.6697615 -118.3527832 39.88476562 C-123.18703657 37.92663219 -128.00562949 35.93298878 -132.73046875 33.72265625 C-135.57615061 32.81654413 -137.38534608 33.07020704 -140.3125 33.625 C-141.36179687 33.82351563 -142.41109375 34.02203125 -143.4921875 34.2265625 C-148.01225814 35.22319278 -152.49119166 36.36351905 -156.9699707 37.52880859 C-163.25997326 39.13712109 -169.56521404 40.12252919 -176 41 C-176 33.08 -176 25.16 -176 17 C-172.32875 16.2575 -168.6575 15.515 -164.875 14.75 C-156.66750091 13.07490969 -148.66838149 11.22530308 -140.70703125 8.6015625 C-134.96516053 7.32559123 -129.85180557 10.13702513 -124.5625 12.1875 C-117.27676345 14.93637556 -109.94444852 17.30502453 -102.4375 19.375 C-101.54683838 19.62531982 -100.65617676 19.87563965 -99.73852539 20.13354492 C-86.13179572 23.78493577 -72.49555017 24.33359696 -58.9375 20.3125 C-57.90181885 20.01504883 -56.8661377 19.71759766 -55.79907227 19.41113281 C-41.52547802 15.16087961 -27.62380457 9.74819442 -13.72436523 4.42285156 C-11.88080444 3.71854004 -11.88080444 3.71854004 -10 3 C-9.28119659 2.72055542 -8.56239319 2.44111084 -7.82180786 2.15319824 C-2.22045066 0 -2.22045066 0 0 0 Z " fill="#555658" transform="translate(492,392)"/>
<path d="M0 0 C4.85736997 0.80956166 8.91112267 1.93867692 13.43359375 3.6953125 C14.89175959 4.24925016 16.35001506 4.80295194 17.80834961 5.35644531 C18.94311234 5.79035583 18.94311234 5.79035583 20.10079956 6.23303223 C59.51297983 21.27749154 86.63219531 25.55490233 127 10 C128.74990234 9.09121094 128.74990234 9.09121094 130.53515625 8.1640625 C135.29947691 6.56342264 138.29084723 7.63595655 143 9 C144.77755196 9.41660856 146.5576446 9.8224927 148.33984375 10.21875 C151.1402686 10.8594086 153.94053742 11.5006985 156.74023438 12.14453125 C157.65998047 12.35464844 158.57972656 12.56476563 159.52734375 12.78125 C160.33937256 12.96751953 161.15140137 13.15378906 161.98803711 13.34570312 C166.31378984 14.28539813 170.65931996 15.13186399 175 16 C175 23.92 175 31.84 175 40 C165.24395185 38.48714836 155.75414817 36.35348334 146.18359375 33.94726562 C145.08402344 33.68236328 143.98445312 33.41746094 142.8515625 33.14453125 C141.87010254 32.90065674 140.88864258 32.65678223 139.87744141 32.40551758 C134.97665634 31.71485035 130.86342176 32.87191298 126.35546875 34.7421875 C125.51306641 35.08636719 124.67066406 35.43054688 123.80273438 35.78515625 C122.93970703 36.14480469 122.07667969 36.50445312 121.1875 36.875 C86.28268833 51.30196985 58.31735598 45.56569961 24.14257812 31.41357422 C16.05621876 28.03173074 8.02247548 24.5303671 0 21 C0 14.07 0 7.14 0 0 Z " fill="#555658" transform="translate(21,393)"/>
<path d="M0 0 C6.6 0 13.2 0 20 0 C19.34 1.65 18.68 3.3 18 5 C15.75590366 11.73228901 17.07737886 19.17873842 18.1875 26.0625 C18.38496826 27.29141968 18.38496826 27.29141968 18.58642578 28.54516602 C22.08830176 48.9622479 30.13609519 71.13609519 45 86 C45.31710133 88.99587235 45.51662819 91.9128419 45.6328125 94.91796875 C45.67437469 95.80857498 45.71593689 96.69918121 45.75875854 97.61677551 C45.88970577 100.47336438 46.00730269 103.33033771 46.125 106.1875 C46.21140691 108.09443895 46.29863668 110.00134081 46.38671875 111.90820312 C47.05702323 126.79141501 47.05702323 126.79141501 47 134 C40.3854309 133.38896649 33.81830901 132.6159647 27.25 131.625 C25.96270996 131.43200317 25.96270996 131.43200317 24.64941406 131.23510742 C17.36219627 130.11321293 10.1815366 128.67648454 3 127 C2.00718608 122.72793884 1.69283717 118.48729411 1.46484375 114.12109375 C1.42177597 113.31286667 1.37870819 112.50463959 1.33433533 111.67192078 C1.19405474 108.92744047 1.06416641 106.18264153 0.9375 103.4375 C0.87021698 102.00624786 0.87021698 102.00624786 0.80157471 100.54608154 C-0.70890549 67.066387 -0.17023111 33.50410227 0 0 Z " fill="#FCC679" transform="translate(168,232)"/>
<path d="M0 0 C1.20077494 0.00040031 1.20077494 0.00040031 2.42580795 0.00080872 C57.26636317 0.02362883 111.97973122 2.53798216 166.625 7.1875 C166.625 15.1075 166.625 23.0275 166.625 31.1875 C162.29916811 30.94492999 157.99040715 30.68433485 153.67333984 30.34521484 C151.80023633 30.20099257 149.92553549 30.07791704 148.05078125 29.95703125 C140.71706113 29.21931976 137.09443087 27.51418262 131.9453125 22.2890625 C106.36935639 -0.87569236 46.32466065 8.99950372 14.65087891 9.00219727 C9.66223492 9.00227811 4.67368359 8.99538928 -0.31494141 8.98168945 C-24.32192604 8.91707966 -48.33049737 8.88542271 -72.32264709 9.83710289 C-74.17607442 9.91043659 -76.02970984 9.9787289 -77.88352966 10.04136086 C-95.56264998 10.66376996 -111.48018585 14.09551744 -124.375 27.1875 C-124.705 27.8475 -125.035 28.5075 -125.375 29.1875 C-127.98413493 29.47641106 -130.50768342 29.65553699 -133.125 29.75 C-138.56952938 29.94287277 -138.56952938 29.94287277 -143.953125 30.71484375 C-146.375 31.1875 -146.375 31.1875 -153.375 31.1875 C-153.375 23.2675 -153.375 15.3475 -153.375 7.1875 C-132.79601111 5.12814057 -112.21384022 3.68203688 -91.5625 2.5625 C-90.43109589 2.50033295 -89.29969177 2.43816589 -88.13400269 2.37411499 C-58.75056149 0.77161388 -29.42231084 -0.02214142 0 0 Z " fill="#D75259" transform="translate(249.375,99.8125)"/>
<path d="M0 0 C5.34051878 0.15536055 8.05074722 3.46623468 11.625 7 C12.87400561 8.19641246 14.12532831 9.39041045 15.37890625 10.58203125 C15.9939502 11.16807129 16.60899414 11.75411133 17.24267578 12.35791016 C21.29684938 16.14623631 25.6414568 19.57234793 30 23 C31.00417969 23.79921875 32.00835937 24.5984375 33.04296875 25.421875 C52.90485556 41.08526451 75.49241459 57.1086137 101.3046875 59.578125 C104 60 104 60 106 62 C105.91463993 65.43147462 105.27167398 66.72636092 102.83984375 69.17578125 C91.35538109 77.63069522 77.41806768 86.19774154 63 88 C62.34515625 88.08765625 61.6903125 88.1753125 61.015625 88.265625 C53.1549368 88.86195307 48.78485357 85.20599361 43.0078125 80.3125 C28.94711597 67.2117707 19.8455326 48.54371616 10.8125 31.875 C9.93899902 30.2667334 9.93899902 30.2667334 9.04785156 28.62597656 C6.10150148 23.13741434 3.24331666 17.60652457 0.51171875 12.0078125 C0.00471436 10.97543457 -0.50229004 9.94305664 -1.0246582 8.87939453 C-2.09888595 5.70806985 -2.03522726 4.14678174 -1 1 C-0.67 0.67 -0.34 0.34 0 0 Z " fill="#3E342E" transform="translate(30,308)"/>
<path d="M0 0 C0.75023437 0.22300781 1.50046875 0.44601562 2.2734375 0.67578125 C3.29993503 4.4653198 3.32479422 6.45691016 1.60546875 9.984375 C1.21311035 10.80252686 0.82075195 11.62067871 0.41650391 12.46362305 C-0.02258301 13.33801025 -0.46166992 14.21239746 -0.9140625 15.11328125 C-1.59202881 16.49350464 -1.59202881 16.49350464 -2.28369141 17.90161133 C-32.51383196 78.81054855 -32.51383196 78.81054855 -52.7265625 87.67578125 C-70.94356657 89.87438519 -88.85961217 78.21816304 -102.7265625 67.67578125 C-103.3865625 67.01578125 -104.0465625 66.35578125 -104.7265625 65.67578125 C-104.3515625 63.05078125 -104.3515625 63.05078125 -103.7265625 60.67578125 C-99.87942839 59.50491435 -96.12647012 58.55097183 -92.1640625 57.86328125 C-59.95487669 51.42144409 -31.40571151 26.75090014 -8.453125 4.46875 C-7.41285156 3.48841797 -7.41285156 3.48841797 -6.3515625 2.48828125 C-5.76632812 1.91722656 -5.18109375 1.34617187 -4.578125 0.7578125 C-2.7265625 -0.32421875 -2.7265625 -0.32421875 0 0 Z " fill="#3E342D" transform="translate(480.7265625,308.32421875)"/>
<path d="M0 0 C-0.33 7.26 -0.66 14.52 -1 22 C-4.3 23.32 -7.6 24.64 -11 26 C-22.55524823 32.57194291 -27.75981966 45.08597096 -33.36712646 56.56533813 C-34.99046359 59.88742016 -36.6351735 63.19891727 -38.27734375 66.51171875 C-38.59958923 67.16303268 -38.92183472 67.81434662 -39.25384521 68.48539734 C-42.97810985 76.0000777 -46.88421903 83.41534096 -50.83398438 90.81347656 C-52.49314782 93.92475542 -54.14034089 97.04233092 -55.78808594 100.15966797 C-57.52341612 103.44082368 -59.26201319 106.7202507 -61 110 C-67.6 110 -74.2 110 -81 110 C-74.19766002 94.82346459 -67.27424866 79.70963967 -60.25048828 64.63452148 C-59.41421209 62.83846081 -58.57811096 61.04231862 -57.7421875 59.24609375 C-57.33416901 58.36948593 -56.92615051 57.49287811 -56.50576782 56.58970642 C-54.02097264 51.23794835 -51.58842443 45.86593939 -49.1953125 40.47265625 C-48.62195874 39.19311751 -48.04808356 37.91381225 -47.47363281 36.63476562 C-46.44994097 34.34724898 -45.44012273 32.05344185 -44.44824219 29.75195312 C-38.98265566 17.62578147 -29.50860497 7.10555305 -17 2 C-11.03774858 0.22804117 -6.41179834 0 0 0 Z " fill="#ECE4D5" transform="translate(165,118)"/>
<path d="M0 0 C0.01030746 0.88995667 0.02061493 1.77991333 0.03123474 2.69683838 C0.13059446 11.22352408 0.23326114 19.75016287 0.33933926 28.27676773 C0.39372232 32.65682416 0.4469732 37.03688729 0.49731445 41.41699219 C0.703574 59.29740406 0.9265027 77.1669663 1.66746521 95.034729 C2.06579904 104.69259579 2.10020631 114.33565855 2 124 C0.10913086 123.67382812 0.10913086 123.67382812 -2 123 C-3.37153593 120.81536112 -4.41300798 118.84283058 -5.4375 116.5 C-5.7368042 115.82928467 -6.0361084 115.15856934 -6.34448242 114.4675293 C-19.15772566 84.83711837 -17.59842371 51.80381151 -14.1875 20.3125 C-14.06347809 19.12624023 -14.06347809 19.12624023 -13.93695068 17.91601562 C-13.69652404 15.66710176 -13.43646652 13.42149897 -13.16796875 11.17578125 C-13.01610107 9.88583252 -12.8642334 8.59588379 -12.70776367 7.2668457 C-10.9771511 -0.72119391 -7.36573853 -0.55590479 0 0 Z " fill="#525254" transform="translate(160,232)"/>
<path d="M0 0 C0.74343155 0.17986954 1.4868631 0.35973907 2.25282288 0.5450592 C-1.94195869 5.52723054 -6.28790928 10.28449337 -10.83140564 14.94911194 C-11.51365707 15.6523912 -12.19590851 16.35567047 -12.89883423 17.08026123 C-19.14649301 23.50969977 -25.43193857 29.90216104 -31.72931004 36.28288174 C-35.94973849 40.56006249 -40.15660526 44.84893116 -44.33433533 49.16786194 C-48.39097506 53.36097946 -52.47880101 57.52120766 -56.59029961 61.66052437 C-58.14571668 63.23736547 -59.68984095 64.82543278 -61.22197151 66.42490959 C-73.85099891 79.58346497 -73.85099891 79.58346497 -79.68122864 80.4962616 C-82.87864639 80.51199169 -85.64654272 80.29524216 -88.74717712 79.5450592 C-84.55239556 74.56288787 -80.20644497 69.80562504 -75.66294861 65.14100647 C-74.98069717 64.4377272 -74.29844574 63.73444794 -73.59552002 63.00985718 C-67.34786124 56.58041864 -61.06241568 50.18795737 -54.76504421 43.80723667 C-50.54461576 39.53005592 -46.33774899 35.24118724 -42.16001892 30.92225647 C-38.10337919 26.72913895 -34.01555324 22.56891074 -29.90405464 18.42959404 C-28.34863756 16.85275294 -26.80451329 15.26468563 -25.27238274 13.66520882 C-10.78442674 -1.43021899 -10.78442674 -1.43021899 0 0 Z " fill="#736364" transform="translate(318.74717712402344,144.45494079589844)"/>
<path d="M0 0 C4.5860108 4.20384323 8.40850815 8.43613734 9.46484375 14.80078125 C8.79805891 19.38982986 6.43312433 21.5298626 3.25 24.75 C2.71117187 25.32621094 2.17234375 25.90242188 1.6171875 26.49609375 C-1.95910913 30.23812119 -4.65818707 32.70104516 -9.9375 33.375 C-21.61479687 32.92873388 -32.11397182 26.63353197 -42 21 C-42 20.34 -42 19.68 -42 19 C-41.030625 18.731875 -40.06125 18.46375 -39.0625 18.1875 C-24.96556377 14.12810776 -12.37879544 7.85577403 0 0 Z " fill="#E6E7E8" transform="translate(433,355)"/>
<path d="M0 0 C14.52 0 29.04 0 44 0 C44 9 44 9 43 20 C28.48 20.33 13.96 20.66 -1 21 C-0.67 14.07 -0.34 7.14 0 0 Z " fill="#FBC275" transform="translate(173,117)"/>
<path d="M0 0 C0.6084375 0.3403125 1.216875 0.680625 1.84375 1.03125 C7.58611037 4.2064375 13.38499522 7.24679863 19.25 10.1875 C19.91064453 10.52007812 20.57128906 10.85265625 21.25195312 11.1953125 C29.36806735 15.26016603 29.36806735 15.26016603 37.9375 18.1875 C38.948125 18.455625 39.95875 18.72375 41 19 C41 19.99 41 20.98 41 22 C22.8996037 31.45442536 22.8996037 31.45442536 15 33 C14.3296875 33.15984375 13.659375 33.3196875 12.96875 33.484375 C9.27483608 33.98276021 7.52800114 33.37471048 4.45703125 31.1953125 C1.84058951 28.89964575 -0.59353432 26.51378662 -3 24 C-3.57621094 23.43152344 -4.15242188 22.86304688 -4.74609375 22.27734375 C-6.84183173 20.0509932 -7.94497116 18.22011535 -8.6875 15.25 C-7.47496281 9.51800601 -4.13818937 4.13818937 0 0 Z " fill="#EAEBEB" transform="translate(78,355)"/>
<path d="M0 0 C4.33310328 -0.116965 8.6657958 -0.1875089 13 -0.25 C14.22074219 -0.28351563 15.44148438 -0.31703125 16.69921875 -0.3515625 C23.9837163 -0.43031382 28.85446663 -0.02865716 35 4 C39.3623408 8.69790548 40.12463741 11.28698469 40.0625 17.625 C40.05347656 18.81351563 40.04445312 20.00203125 40.03515625 21.2265625 C40.02355469 22.14179688 40.01195312 23.05703125 40 24 C35.83370795 24.14628834 31.66808403 24.23440421 27.5 24.3125 C26.32695313 24.35439453 25.15390625 24.39628906 23.9453125 24.43945312 C16.61306354 24.54243415 11.60945345 23.93802713 6 19 C1.66339296 14.43515048 -0.11468714 10.58944636 -0.046875 4.328125 C-0.04010742 3.51762695 -0.03333984 2.70712891 -0.02636719 1.87207031 C-0.01766602 1.25428711 -0.00896484 0.63650391 0 0 Z " fill="#545557" transform="translate(28,172)"/>
<path d="M0 0 C1.11826172 0.00322266 2.23652344 0.00644531 3.38867188 0.00976562 C4.55591797 0.01814453 5.72316406 0.02652344 6.92578125 0.03515625 C8.10462891 0.03966797 9.28347656 0.04417969 10.49804688 0.04882812 C13.41150914 0.06062352 16.32486988 0.07708355 19.23828125 0.09765625 C19.47189032 7.53720651 19.07586523 12.95516834 13.8125 18.63671875 C8.96658634 22.91915408 4.65591938 24.35834997 -1.71875 24.29296875 C-2.83056641 24.28652344 -3.94238281 24.28007812 -5.08789062 24.2734375 C-6.23837891 24.25667969 -7.38886719 24.23992187 -8.57421875 24.22265625 C-9.74404297 24.21363281 -10.91386719 24.20460937 -12.11914062 24.1953125 C-15.00020928 24.17179357 -17.88085864 24.13892477 -20.76171875 24.09765625 C-20.8026118 22.68514207 -20.8314898 21.27227753 -20.85546875 19.859375 C-20.87287109 19.07264404 -20.89027344 18.28591309 -20.90820312 17.4753418 C-20.59970972 12.46797968 -18.46578175 8.67485741 -14.8203125 5.30078125 C-9.84716657 1.45414904 -6.35896392 -0.032279 0 0 Z " fill="#545557" transform="translate(464.76171875,171.90234375)"/>
<path d="M0 0 C3.25817164 2.75066827 4.9594917 6.36843586 6.9375 10.0625 C14.04872597 23.00445481 22.35076203 35.19246217 31.453125 46.8125 C33 49 33 49 33 51 C26.52332215 48.87654748 20.07539851 46.69061652 13.6875 44.3125 C12.36782227 43.86100586 12.36782227 43.86100586 11.02148438 43.40039062 C6.57152727 41.71434006 3.74096836 40.41921085 1.50390625 36.08984375 C0.96366801 34.74151805 0.45872026 33.37819276 0 32 C-0.34546875 31.01515625 -0.6909375 30.0303125 -1.046875 29.015625 C-3.44031733 19.60141851 -4.49599003 10.25409125 -1 1 C-0.67 0.67 -0.34 0.34 0 0 Z " fill="#C9434B" transform="translate(15,343)"/>
<path d="M0 0 C2.89141843 2.63999074 3.87045543 4.60049386 4.23828125 8.57421875 C4.39532667 15.16186068 3.77200827 21.13329137 2.1875 27.5 C2.0222583 28.16990967 1.8570166 28.83981934 1.68676758 29.5300293 C0.631067 33.47512027 -0.57959733 36.71022421 -3 40 C-5.78735352 41.57739258 -5.78735352 41.57739258 -9.12890625 42.89453125 C-10.32837891 43.37470703 -11.52785156 43.85488281 -12.76367188 44.34960938 C-14.02992985 44.83728649 -15.2962061 45.32491616 -16.5625 45.8125 C-17.83324862 46.31824079 -19.10343829 46.82538843 -20.37304688 47.33398438 C-29.64532313 51 -29.64532313 51 -32 51 C-30.63812237 48.11019158 -29.07944236 45.58786129 -27.19921875 43.0078125 C-18.86049002 31.41482848 -11.35068922 19.53530249 -4.24072266 7.15283203 C-2.85630319 4.75066539 -1.43953103 2.36953733 0 0 Z " fill="#CA434B" transform="translate(496,343)"/>
<path d="M0 0 C4.55555556 0.55555556 4.55555556 0.55555556 6 2 C6.10382589 3.61580008 6.13852243 5.23610624 6.14526367 6.85522461 C6.15164352 7.8897728 6.15802338 8.92432098 6.16459656 9.99021912 C6.16570938 11.11622025 6.1668222 12.24222137 6.16796875 13.40234375 C6.17129715 14.55037979 6.17462555 15.69841583 6.17805481 16.88124084 C6.18312901 19.31494749 6.18546298 21.74866112 6.18530273 24.18237305 C6.18748854 27.91792192 6.20563746 31.65317535 6.22460938 35.38867188 C6.22754325 37.74739482 6.22952808 40.10611917 6.23046875 42.46484375 C6.23765427 43.58882065 6.24483978 44.71279755 6.25224304 45.87083435 C6.24916641 46.9085347 6.24608978 47.94623505 6.24291992 49.01538086 C6.24434494 49.93169785 6.24576996 50.84801483 6.24723816 51.792099 C6 54 6 54 4 56 C-0.55555556 55.44444444 -0.55555556 55.44444444 -2 54 C-2.10382589 52.38419992 -2.13852243 50.76389376 -2.14526367 49.14477539 C-2.15164352 48.1102272 -2.15802338 47.07567902 -2.16459656 46.00978088 C-2.16570938 44.88377975 -2.1668222 43.75777863 -2.16796875 42.59765625 C-2.17296135 40.87560219 -2.17296135 40.87560219 -2.17805481 39.11875916 C-2.18312901 36.68505251 -2.18546298 34.25133888 -2.18530273 31.81762695 C-2.18748854 28.08207808 -2.20563746 24.34682465 -2.22460938 20.61132812 C-2.22754325 18.25260518 -2.22952808 15.89388083 -2.23046875 13.53515625 C-2.23765427 12.41117935 -2.24483978 11.28720245 -2.25224304 10.12916565 C-2.24916641 9.0914653 -2.24608978 8.05376495 -2.24291992 6.98461914 C-2.24434494 6.06830215 -2.24576996 5.15198517 -2.24723816 4.207901 C-2 2 -2 2 0 0 Z " fill="#535456" transform="translate(426,96)"/>
<path d="M0 0 C4.55555556 0.55555556 4.55555556 0.55555556 6 2 C6.10382589 3.61580008 6.13852243 5.23610624 6.14526367 6.85522461 C6.15164352 7.8897728 6.15802338 8.92432098 6.16459656 9.99021912 C6.16570938 11.11622025 6.1668222 12.24222137 6.16796875 13.40234375 C6.17129715 14.55037979 6.17462555 15.69841583 6.17805481 16.88124084 C6.18312901 19.31494749 6.18546298 21.74866112 6.18530273 24.18237305 C6.18748854 27.91792192 6.20563746 31.65317535 6.22460938 35.38867188 C6.22754325 37.74739482 6.22952808 40.10611917 6.23046875 42.46484375 C6.23765427 43.58882065 6.24483978 44.71279755 6.25224304 45.87083435 C6.24916641 46.9085347 6.24608978 47.94623505 6.24291992 49.01538086 C6.24434494 49.93169785 6.24576996 50.84801483 6.24723816 51.792099 C6 54 6 54 4 56 C-0.55555556 55.44444444 -0.55555556 55.44444444 -2 54 C-2.10382589 52.38419992 -2.13852243 50.76389376 -2.14526367 49.14477539 C-2.15164352 48.1102272 -2.15802338 47.07567902 -2.16459656 46.00978088 C-2.16570938 44.88377975 -2.1668222 43.75777863 -2.16796875 42.59765625 C-2.17296135 40.87560219 -2.17296135 40.87560219 -2.17805481 39.11875916 C-2.18312901 36.68505251 -2.18546298 34.25133888 -2.18530273 31.81762695 C-2.18748854 28.08207808 -2.20563746 24.34682465 -2.22460938 20.61132812 C-2.22754325 18.25260518 -2.22952808 15.89388083 -2.23046875 13.53515625 C-2.23765427 12.41117935 -2.24483978 11.28720245 -2.25224304 10.12916565 C-2.24916641 9.0914653 -2.24608978 8.05376495 -2.24291992 6.98461914 C-2.24434494 6.06830215 -2.24576996 5.15198517 -2.24723816 4.207901 C-2 2 -2 2 0 0 Z " fill="#535456" transform="translate(82,96)"/>
<path d="M0 0 C3.97393417 1.66462618 6.9776361 4.3899639 10.1875 7.1875 C15.34142902 11.61942679 20.57894976 15.89569064 26 20 C24.61735163 22.86867231 23.07851447 25.56024032 21.375 28.25 C20.92898437 28.95640625 20.48296875 29.6628125 20.0234375 30.390625 C19.51683594 31.18726563 19.51683594 31.18726563 19 32 C15.60877207 28.91880849 13.53202624 25.74300949 11.328125 21.73828125 C11.00084412 21.1470195 10.67356323 20.55575775 10.33636475 19.94657898 C9.65090021 18.70532047 8.96867527 17.46226793 8.28955078 16.2175293 C7.24562482 14.30448227 6.19208301 12.3969911 5.13671875 10.49023438 C0 1.1669124 0 1.1669124 0 0 Z " fill="#E5E5E5" transform="translate(45,330)"/>
<path d="M0 0 C0.66 0.33 1.32 0.66 2 1 C0.13225382 4.48310647 -1.74553209 7.96070653 -3.625 11.4375 C-4.14707031 12.41138672 -4.66914063 13.38527344 -5.20703125 14.38867188 C-8.50970223 20.48434238 -12.03656368 26.31089525 -16 32 C-18.15247152 29.88917243 -19.96004752 27.78695896 -21.6875 25.3125 C-22.12449219 24.68988281 -22.56148438 24.06726563 -23.01171875 23.42578125 C-23.33785156 22.95527344 -23.66398437 22.48476563 -24 22 C-22.46788567 17.76472853 -19.3187923 15.68119069 -15.8125 13.125 C-14.63419699 12.24642508 -13.4571041 11.36622477 -12.28125 10.484375 C-11.71535156 10.06091797 -11.14945312 9.63746094 -10.56640625 9.20117188 C-8.57405058 7.67336797 -6.68773437 6.04364076 -4.8125 4.375 C-2 2 -2 2 0 2 C0 1.34 0 0.68 0 0 Z " fill="#E1E2E2" transform="translate(465,330)"/>
<path d="M0 0 C0.40886509 5.73141247 -0.64246978 8.98784943 -3.5 13.9375 C-4.1496875 15.08089844 -4.799375 16.22429687 -5.46875 17.40234375 C-5.9740625 18.25957031 -6.479375 19.11679688 -7 20 C-9.83245373 16.31936645 -12.05770944 13.30837747 -11.9375 8.5 C-9.79719525 2.79252066 -5.89979338 0 0 0 Z " fill="#4E4E50" transform="translate(436,193)"/>
<path d="M0 0 C3.97007156 0.27698174 5.72389212 0.76684223 8.8125 3.375 C11 6 11 6 12 9 C11.00390625 11.48046875 11.00390625 11.48046875 9.5625 14.1875 C9.08941406 15.08855469 8.61632812 15.98960937 8.12890625 16.91796875 C7.75636719 17.60503906 7.38382812 18.29210937 7 19 C2.3014164 12.92819139 -0.64989905 7.79878864 0 0 Z " fill="#4F4F50" transform="translate(76,193)"/>
</svg>
